<svg width="40" height="40" viewBox="0 0 40 40" fill="none" xmlns="http://www.w3.org/2000/svg">
<path fill-rule="evenodd" clip-rule="evenodd" d="M20 38C29.9411 38 38 29.9411 38 20C38 10.0589 29.9411 2 20 2C10.0589 2 2 10.0589 2 20C2 29.9411 10.0589 38 20 38ZM13.5 16.6667H18.5V14.4444L13.5 14.44V16.6667ZM26.5 25.5556H21.5V22.5V18.5V14.4444H26.5V18.5V22.5V25.5556ZM13.5 18.8889H18.5V21.1111H13.5V18.8889ZM13.5 23.3333H18.5V25.5H13.5V23.3333ZM10 12.2222V27.7778C10 29 11 30 12.2222 30H27.7778C29 30 30 29 30 27.7778V12.2222C30 11 29 10 27.7778 10H12.2222C11 10 10 11 10 12.2222ZM27.7778 27.7778H12.2222V12.2222H27.7778V27.7778Z" fill="white"/>
</svg>
