<svg width="40" height="40" viewBox="0 0 40 40" fill="none" xmlns="http://www.w3.org/2000/svg">
<path fill-rule="evenodd" clip-rule="evenodd" d="M20 38C29.9411 38 38 29.9411 38 20C38 10.0589 29.9411 2 20 2C10.0589 2 2 10.0589 2 20C2 29.9411 10.0589 38 20 38ZM24 8C24 10.2091 22.2091 12 20 12C17.7909 12 16 10.2091 16 8C16 5.79086 17.7909 4 20 4C22.2091 4 24 5.79086 24 8ZM10.9892 13.0299C9.20201 11.7314 6.70053 12.1276 5.40203 13.9148C4.10353 15.702 4.49973 18.2035 6.28696 19.502C8.07419 20.8005 10.5757 20.4043 11.8742 18.6171C13.1727 16.8298 12.7765 14.3284 10.9892 13.0299ZM16.7419 30.888C17.4246 28.787 16.2748 26.5303 14.1737 25.8477C12.0727 25.165 9.81611 26.3148 9.13345 28.4158C8.45079 30.5168 9.60059 32.7735 11.7016 33.4561C13.8026 34.1388 16.0592 32.989 16.7419 30.888ZM23.1929 30.9354C23.8756 33.0364 26.1322 34.1862 28.2332 33.5035C30.3342 32.8209 31.484 30.5642 30.8014 28.4632C30.1187 26.3622 27.8621 25.2124 25.7611 25.8951C23.66 26.5777 22.5102 28.8343 23.1929 30.9354ZM35.3868 16.3426C35.3868 18.5517 33.5959 20.3426 31.3868 20.3426C29.1777 20.3426 27.3868 18.5517 27.3868 16.3426C27.3868 14.1334 29.1777 12.3426 31.3868 12.3426C33.5959 12.3426 35.3868 14.1334 35.3868 16.3426Z" fill="white"/>
</svg>
