<svg width="40" height="40" viewBox="0 0 40 40" fill="none" xmlns="http://www.w3.org/2000/svg">
<path fill-rule="evenodd" clip-rule="evenodd" d="M20 38C29.9411 38 38 29.9411 38 20C38 10.0589 29.9411 2 20 2C10.0589 2 2 10.0589 2 20C2 29.9411 10.0589 38 20 38ZM21 17H25C26.6569 17 28 18.3431 28 20C28 21.6569 26.6569 23 25 23H21V25H25C27.7614 25 30 22.7614 30 20C30 17.2386 27.7614 15 25 15H21V17ZM19 17V15H15C12.2386 15 10 17.2386 10 20C10 22.7614 12.2386 25 15 25H19V23H15C13.3431 23 12 21.6569 12 20C12 18.3431 13.3431 17 15 17H19ZM16 19H24V21H16V19Z" fill="white"/>
</svg>
