<svg width="40" height="40" viewBox="0 0 40 40" fill="none" xmlns="http://www.w3.org/2000/svg">
<path fill-rule="evenodd" clip-rule="evenodd" d="M20 38C29.9411 38 38 29.9411 38 20C38 10.0589 29.9411 2 20 2C10.0589 2 2 10.0589 2 20C2 29.9411 10.0589 38 20 38ZM18 18V6H22V18H18ZM17 8.37805C11.8243 9.71018 8 14.4085 8 20C8 26.6274 13.3726 32 20 32C26.6274 32 32 26.6274 32 20C32 14.4085 28.1757 9.71018 23 8.37805V11.5121C26.4956 12.7476 29 16.0813 29 20C29 24.9706 24.9706 29 20 29C15.0294 29 11 24.9706 11 20C11 16.0813 13.5044 12.7476 17 11.5121V8.37805Z" fill="white"/>
</svg>
