<svg width="40" height="40" viewBox="0 0 40 40" fill="none" xmlns="http://www.w3.org/2000/svg">
<path fill-rule="evenodd" clip-rule="evenodd" d="M20 38C29.9411 38 38 29.9411 38 20C38 10.0589 29.9411 2 20 2C10.0589 2 2 10.0589 2 20C2 29.9411 10.0589 38 20 38ZM18.38 18.0206C18.24 18.2612 18.13 18.5519 18.08 18.8828C17.96 19.8753 17.88 21.1285 18.38 22.0308C18.5 22.3015 18.72 22.5321 18.97 22.6725C19.2 22.8229 19.5 22.893 19.86 22.9031C20.28 22.9031 20.67 22.7627 21 22.502C21.13 22.3717 21.25 22.2213 21.34 22.0308C21.43 21.8604 21.5 21.6699 21.5 21.4594H23.28C23.27 21.8704 23.16 22.2514 23 22.6123C22.8 22.9732 22.55 23.284 22.24 23.5347C20.8 24.8681 18.15 24.6576 16.94 23.1637C15.63 21.4894 15.66 18.5619 16.95 16.8876C18.18 15.3637 20.87 15.1733 22.32 16.5167C22.62 16.7974 22.85 17.1383 23 17.5193C23.19 17.9203 23.28 18.3514 23.3 18.8226H21.5C21.5 18.3915 21.31 17.9604 21.03 17.6496C20.74 17.3589 20.33 17.1583 19.88 17.1583C19.19 17.1684 18.68 17.4591 18.38 18.0206ZM10 20.0257C10 14.5116 14.5 10 20 10C25.5 10 30 14.5116 30 20.0257C29.5 33.3198 10.53 33.3298 10 20.0257ZM12 20.0257C12 24.447 15.59 28.0462 20 28.0462C24.41 28.0462 28 24.447 28 20.0257C27.56 9.38843 12.44 9.38843 12 20.0257Z" fill="white"/>
</svg>
