<svg width="40" height="40" viewBox="0 0 40 40" fill="none" xmlns="http://www.w3.org/2000/svg">
<path fill-rule="evenodd" clip-rule="evenodd" d="M38 20C38 29.9411 29.9411 38 20 38C10.0589 38 2 29.9411 2 20C2 10.0589 10.0589 2 20 2C29.9411 2 38 10.0589 38 20ZM24.4 8H22H13C11.8954 8 11 8.89543 11 10V30C11 31.1046 11.8954 32 13 32H27C28.1046 32 29 31.1046 29 30V15V12.6L24.4 8ZM24.4 9.39999L27.6 12.6H25.4C24.8477 12.6 24.4 12.1523 24.4 11.6V9.39999ZM28 30V13.6H25.4C24.2954 13.6 23.4 12.7045 23.4 11.6V9H13C12.4477 9 12 9.44772 12 10V30C12 30.5523 12.4477 31 13 31H27C27.5523 31 28 30.5523 28 30ZM12.7752 14.25V10.6136H13.6541V13.5362H15.1669V14.25H12.7752ZM18.9125 12.4318C18.9125 12.8319 18.8355 13.171 18.6816 13.4492C18.5278 13.7274 18.3194 13.9387 18.0566 14.0831C17.795 14.2275 17.5015 14.2997 17.176 14.2997C16.8493 14.2997 16.5551 14.2269 16.2935 14.0813C16.0319 13.9357 15.8242 13.7244 15.6703 13.4474C15.5176 13.1693 15.4412 12.8307 15.4412 12.4318C15.4412 12.0317 15.5176 11.6926 15.6703 11.4144C15.8242 11.1362 16.0319 10.925 16.2935 10.7805C16.5551 10.6361 16.8493 10.5639 17.176 10.5639C17.5015 10.5639 17.795 10.6361 18.0566 10.7805C18.3194 10.925 18.5278 11.1362 18.6816 11.4144C18.8355 11.6926 18.9125 12.0317 18.9125 12.4318ZM18.014 12.4318C18.014 12.1951 17.9803 11.995 17.9128 11.8317C17.8465 11.6683 17.7507 11.5446 17.6252 11.4606C17.5009 11.3765 17.3511 11.3345 17.176 11.3345C17.002 11.3345 16.8522 11.3765 16.7267 11.4606C16.6013 11.5446 16.5048 11.6683 16.4373 11.8317C16.371 11.995 16.3379 12.1951 16.3379 12.4318C16.3379 12.6686 16.371 12.8686 16.4373 13.032C16.5048 13.1953 16.6013 13.319 16.7267 13.4031C16.8522 13.4871 17.002 13.5291 17.176 13.5291C17.3511 13.5291 17.5009 13.4871 17.6252 13.4031C17.7507 13.319 17.8465 13.1953 17.9128 13.032C17.9803 12.8686 18.014 12.6686 18.014 12.4318ZM21.812 11.8015C21.7918 11.7269 21.7623 11.6612 21.7232 11.6044C21.6841 11.5464 21.6362 11.4973 21.5794 11.457C21.5225 11.4168 21.4574 11.3866 21.3841 11.3665C21.3107 11.3452 21.2302 11.3345 21.1426 11.3345C20.9662 11.3345 20.8135 11.3771 20.6845 11.4624C20.5566 11.5476 20.4578 11.6719 20.388 11.8352C20.3181 11.9974 20.2832 12.1945 20.2832 12.4265C20.2832 12.6597 20.3169 12.8585 20.3844 13.0231C20.4519 13.1876 20.5495 13.3131 20.6774 13.3995C20.8052 13.4859 20.9603 13.5291 21.1426 13.5291C21.3036 13.5291 21.4397 13.5031 21.551 13.451C21.6634 13.3977 21.7486 13.3226 21.8066 13.2255C21.8617 13.1333 21.8907 13.0256 21.8934 12.9023H21.1728V12.2614H22.7406V12.7425C22.7406 13.0681 22.6713 13.3468 22.5328 13.5788C22.3955 13.8108 22.2061 13.989 21.9647 14.1133C21.7244 14.2376 21.448 14.2997 21.1355 14.2997C20.7886 14.2997 20.4838 14.2246 20.2211 14.0742C19.9583 13.9239 19.7535 13.7096 19.6067 13.4315C19.4599 13.1521 19.3865 12.8207 19.3865 12.4371C19.3865 12.1388 19.4309 11.8743 19.5197 11.6435C19.6085 11.4115 19.7322 11.215 19.8908 11.054C20.0506 10.893 20.2353 10.7711 20.4448 10.6882C20.6555 10.6054 20.8822 10.5639 21.1248 10.5639C21.3355 10.5639 21.5314 10.5941 21.7125 10.6545C21.8948 10.7148 22.0558 10.8001 22.1955 10.9102C22.3364 11.0202 22.4506 11.151 22.5382 11.3026C22.6258 11.4541 22.6802 11.6204 22.7015 11.8015H21.812ZM14 16C13.7239 16 13.5 16.2239 13.5 16.5C13.5 16.7761 13.7239 17 14 17H25.5C25.7761 17 26 16.7761 26 16.5C26 16.2239 25.7761 16 25.5 16H14ZM13.5 19.5C13.5 19.2239 13.7239 19 14 19H23C23.2761 19 23.5 19.2239 23.5 19.5C23.5 19.7761 23.2761 20 23 20H14C13.7239 20 13.5 19.7761 13.5 19.5ZM14 22C13.7239 22 13.5 22.2239 13.5 22.5C13.5 22.7761 13.7239 23 14 23H25C25.2761 23 25.5 22.7761 25.5 22.5C25.5 22.2239 25.2761 22 25 22H14ZM13.5 25.5C13.5 25.2239 13.7239 25 14 25H24C24.2761 25 24.5 25.2239 24.5 25.5C24.5 25.7761 24.2761 26 24 26H14C13.7239 26 13.5 25.7761 13.5 25.5ZM14 28C13.7239 28 13.5 28.2239 13.5 28.5C13.5 28.7761 13.7239 29 14 29H22C22.2761 29 22.5 28.7761 22.5 28.5C22.5 28.2239 22.2761 28 22 28H14Z" fill="white"/>
</svg>
