<svg width="100" height="100" viewBox="0 0 100 100" fill="none" xmlns="http://www.w3.org/2000/svg">
<path d="M42.8028 39.1852C41.5138 40.4742 40.1834 41.4731 38.8115 42.1821C37.4489 42.8818 36.0632 43.3376 34.6545 43.5493C33.2642 43.7611 31.8694 43.7473 30.4699 43.5079C29.0704 43.2685 27.6939 42.8496 26.3405 42.2511C24.9962 41.6435 23.6796 40.8793 22.3906 39.9586C21.12 39.0378 19.9047 37.9974 18.7446 36.8373C18.3119 36.4046 17.8975 35.9719 17.5016 35.5391C17.1149 35.0972 16.7282 34.6368 16.3415 34.1581L35.2622 16.0108C36.5972 16.7014 37.8632 17.5162 39.0601 18.4553C40.2755 19.3945 41.4125 20.3934 42.4713 21.4522C43.788 22.7689 44.8007 24.1775 45.5097 25.6783C46.2186 27.1791 46.6007 28.7028 46.656 30.2496C46.7112 31.7964 46.4212 33.3294 45.7859 34.8486C45.1598 36.377 44.1655 37.8225 42.8028 39.1852ZM36.2565 34.4067C36.7629 33.9187 37.1865 33.3847 37.5271 32.8046C37.877 32.2338 38.0934 31.6399 38.1762 31.023C38.2775 30.4062 38.2315 29.7893 38.0381 29.1724C37.854 28.5463 37.4903 27.9433 36.9471 27.3632L27.832 35.3734C28.4673 35.843 29.1486 36.1652 29.876 36.3402C30.6126 36.5059 31.3445 36.5473 32.0719 36.4645C32.8177 36.3816 33.5266 36.179 34.1988 35.8568C34.8893 35.5345 35.5108 35.1156 36.0632 34.6L36.2565 34.4067ZM65.6733 44.157C64.7526 44.9672 63.8457 45.7728 62.9526 46.5739C62.0595 47.3749 61.1434 48.1713 60.2043 48.9631L54.0447 43.4112L52.1664 45.0133L56.282 49.1288L51.6969 53.1063L47.4156 49.1012L45.2611 50.9795L48.6862 54.4045L51.1168 56.8352C50.0488 57.7927 48.9808 58.7411 47.9128 59.6802C46.8631 60.6193 45.8135 61.5677 44.7639 62.5252L32.5829 50.8966L52.9398 31.4236L65.6733 44.157ZM78.9315 58.4096L72.33 63.4643C72.1367 63.1237 71.9203 62.806 71.6809 62.5114C71.4415 62.2168 71.1884 61.9359 70.9213 61.6689C70.24 60.9876 69.4988 60.4306 68.6978 59.9978C67.906 59.5559 67.0866 59.2797 66.2395 59.1692C65.4017 59.0679 64.5638 59.1508 63.726 59.4178C62.8973 59.694 62.1101 60.205 61.3644 60.9508C60.8856 61.4296 60.5449 61.9175 60.3424 62.4147C60.149 62.9211 60.0754 63.4275 60.1214 63.9339C60.1674 64.4403 60.324 64.9375 60.591 65.4254C60.858 65.9134 61.217 66.383 61.6682 66.8341C62.0089 67.1748 62.4002 67.4924 62.8421 67.7871C63.284 68.0817 63.7444 68.3487 64.2232 68.5881C64.7019 68.8275 65.1899 69.0392 65.6871 69.2234C66.1843 69.4075 66.6585 69.5594 67.1096 69.6791L60.0662 75.6177C59.5229 75.4428 58.9659 75.2172 58.3951 74.941C57.8426 74.6648 57.2902 74.361 56.7378 74.0295C56.1946 73.6888 55.6744 73.3252 55.1772 72.9385C54.68 72.5518 54.2288 72.1558 53.8237 71.7507C52.6544 70.5814 51.7797 69.274 51.1997 67.8285C50.6196 66.383 50.3342 64.9098 50.3434 63.4091C50.3526 61.9083 50.6519 60.4306 51.2411 58.9759C51.8488 57.5211 52.7465 56.1999 53.9342 55.0122C55.5086 53.4378 57.2166 52.181 59.058 51.2419C60.9086 50.2935 62.7961 49.7319 64.7204 49.557C66.6446 49.382 68.5551 49.6352 70.4518 50.3166C72.3577 51.0071 74.153 52.1948 75.8379 53.8797C76.4732 54.515 77.0717 55.2147 77.6333 55.9789C78.2042 56.7523 78.6369 57.5626 78.9315 58.4096ZM67.0267 79.098L70.6175 75.452L67.2201 71.9441L71.308 67.7456L74.8712 71.0878L78.1305 67.8285L82.8538 71.6679L79.4011 75.231L83.13 78.7389L78.462 83.5174L74.8988 79.8438L71.3357 83.5174L67.0267 79.098Z" fill="white"/>
</svg>
