<svg width="100" height="100" viewBox="0 0 100 100" fill="none" xmlns="http://www.w3.org/2000/svg">
<g clip-path="url(#clip0_9_27)">
<path d="M42.1852 55.6358C43.4742 56.9248 44.4731 58.2552 45.1821 59.6271C45.8818 60.9897 46.3376 62.3754 46.5493 63.7841C46.7611 65.1744 46.7473 66.5692 46.5079 67.9687C46.2685 69.3682 45.8496 70.7447 45.2511 72.0981C44.6435 73.4424 43.8793 74.759 42.9586 76.048C42.0378 77.3186 40.9974 78.5339 39.8373 79.694C39.4046 80.1267 38.9719 80.5411 38.5391 80.937C38.0972 81.3237 37.6368 81.7104 37.1581 82.0971L19.0108 63.1764C19.7014 61.8414 20.5162 60.5754 21.4553 59.3785C22.3945 58.1631 23.3934 57.0261 24.4522 55.9672C25.7689 54.6506 27.1775 53.6378 28.6783 52.9289C30.1791 52.22 31.7028 51.8379 33.2496 51.7826C34.7964 51.7274 36.3294 52.0174 37.8486 52.6527C39.377 53.2788 40.8225 54.2731 42.1852 55.6358ZM37.4067 62.1821C36.9187 61.6757 36.3847 61.2521 35.8046 60.9115C35.2338 60.5616 34.6399 60.3452 34.023 60.2624C33.4062 60.1611 32.7893 60.2071 32.1724 60.4005C31.5463 60.5846 30.9433 60.9483 30.3632 61.4915L38.3734 70.6066C38.843 69.9713 39.1652 69.29 39.3402 68.5626C39.5059 67.826 39.5473 67.0941 39.4645 66.3667C39.3816 65.6209 39.179 64.912 38.8568 64.2398C38.5345 63.5493 38.1156 62.9278 37.6 62.3754L37.4067 62.1821ZM47.157 32.7653C47.9672 33.686 48.7728 34.5929 49.5739 35.486C50.3749 36.3791 51.1713 37.2952 51.9631 38.2343L46.4112 44.3939L48.0133 46.2722L52.1288 42.1566L56.1063 46.7417L52.1012 51.023L53.9795 53.1775L57.4045 49.7524L59.8352 47.3218C60.7927 48.3898 61.7411 49.4578 62.6802 50.5258C63.6193 51.5755 64.5677 52.6251 65.5252 53.6747L53.8966 65.8557L34.4236 45.4988L47.157 32.7653ZM61.4096 19.5071L66.4643 26.1086C66.1237 26.3019 65.806 26.5183 65.5114 26.7577C65.2168 26.997 64.9359 27.2502 64.6689 27.5173C63.9876 28.1986 63.4306 28.9398 62.9978 29.7408C62.5559 30.5326 62.2797 31.352 62.1692 32.1991C62.0679 33.0369 62.1508 33.8748 62.4178 34.7126C62.694 35.5413 63.205 36.3285 63.9508 37.0742C64.4296 37.553 64.9175 37.8937 65.4147 38.0962C65.9211 38.2896 66.4275 38.3632 66.9339 38.3172C67.4403 38.2712 67.9375 38.1146 68.4254 37.8476C68.9134 37.5806 69.383 37.2216 69.8341 36.7704C70.1748 36.4297 70.4924 36.0384 70.7871 35.5965C71.0817 35.1546 71.3487 34.6942 71.5881 34.2154C71.8275 33.7367 72.0392 33.2487 72.2234 32.7515C72.4075 32.2543 72.5594 31.7801 72.6791 31.329L78.6177 38.3724C78.4428 38.9157 78.2172 39.4727 77.941 40.0435C77.6648 40.596 77.361 41.1484 77.0295 41.7008C76.6888 42.244 76.3252 42.7642 75.9385 43.2614C75.5518 43.7586 75.1558 44.2098 74.7507 44.6149C73.5814 45.7842 72.274 46.6589 70.8285 47.2389C69.383 47.8189 67.9098 48.1044 66.4091 48.0952C64.9083 48.086 63.4306 47.7867 61.9759 47.1975C60.5211 46.5898 59.1999 45.6921 58.0122 44.5044C56.4378 42.93 55.181 41.222 54.2419 39.3806C53.2935 37.53 52.7319 35.6425 52.557 33.7182C52.382 31.794 52.6352 29.8835 53.3166 27.9868C54.0071 26.0809 55.1948 24.2856 56.8797 22.6006C57.515 21.9654 58.2147 21.3669 58.9789 20.8053C59.7523 20.2344 60.5626 19.8017 61.4096 19.5071ZM74.3226 30.1827L70.1242 26.0948L78.6315 16.7587L83.41 21.4267L74.3226 30.1827Z" fill="white"/>
</g>
<defs>
<clipPath id="clip0_9_27">
<rect width="100" height="100" fill="white" transform="matrix(-1 0 0 -1 100 100)"/>
</clipPath>
</defs>
</svg>
