<svg width="40" height="40" viewBox="0 0 40 40" fill="none" xmlns="http://www.w3.org/2000/svg">
<path fill-rule="evenodd" clip-rule="evenodd" d="M20 38C29.9411 38 38 29.9411 38 20C38 10.0589 29.9411 2 20 2C10.0589 2 2 10.0589 2 20C2 29.9411 10.0589 38 20 38ZM17 12V14H13C11.3431 14 10 15.3431 10 17C10 18.6569 11.3431 20 13 20H17V22H13C10.2386 22 8 19.7614 8 17C8 14.2386 10.2386 12 13 12H17ZM26.7279 16.6569L25.3137 18.0711L28.1421 20.8995C29.3137 22.0711 29.3137 23.9706 28.1421 25.1422C26.9706 26.3137 25.0711 26.3137 23.8995 25.1422L21.0711 22.3137L19.6569 23.7279L22.4853 26.5564C24.4379 28.509 27.6037 28.509 29.5564 26.5564C31.509 24.6037 31.509 21.4379 29.5564 19.4853L26.7279 16.6569ZM26.0208 21.6066L20.364 15.9498L18.9497 17.364L24.6066 23.0208L26.0208 21.6066Z" fill="white"/>
</svg>
