<svg width="40" height="40" viewBox="0 0 40 40" fill="none" xmlns="http://www.w3.org/2000/svg">
<path fill-rule="evenodd" clip-rule="evenodd" d="M20 37.9999C29.9411 37.9999 38 29.9411 38 19.9999C38 10.0588 29.9411 1.99994 20 1.99994C10.0589 1.99994 2 10.0588 2 19.9999C2 29.9411 10.0589 37.9999 20 37.9999ZM18 5.99994H22L22 17.9999H20.1153L18 15.8847V5.99994ZM14.7817 12.6663C15.4576 12.1845 16.203 11.7937 17 11.5121V8.37799C15.3906 8.79222 13.9118 9.53194 12.6381 10.5228L14.7817 12.6663ZM10.5176 12.6449C8.93956 14.6763 7.99998 17.2284 7.99998 19.9999C7.99998 26.6274 13.3726 31.9999 20 31.9999C22.7715 31.9999 25.3236 31.0604 27.3551 29.4824L25.2113 27.3386C23.7407 28.3847 21.9422 28.9999 20 28.9999C15.0294 28.9999 11 24.9705 11 19.9999C11 18.0577 11.6152 16.2592 12.6614 14.7887L10.5176 12.6449ZM27.3336 25.2183L29.4771 27.3618C31.0583 25.3292 32 22.7745 32 19.9999C32 14.4084 28.1757 9.71012 23 8.37799L23 11.5121C26.4956 12.7476 29 16.0813 29 19.9999C29 21.9452 28.3828 23.7464 27.3336 25.2183ZM8.68631 10.1005L10.1005 8.68625L31.3137 29.8995L29.8995 31.3137L8.68631 10.1005Z" fill="white"/>
</svg>
