<svg width="40" height="40" viewBox="0 0 40 40" fill="none" xmlns="http://www.w3.org/2000/svg">
<path fill-rule="evenodd" clip-rule="evenodd" d="M20 38C29.9411 38 38 29.9411 38 20C38 10.0589 29.9411 2 20 2C10.0589 2 2 10.0589 2 20C2 29.9411 10.0589 38 20 38ZM30 30V25H29V29H25V30H30ZM30 15H29V11H25V10H30V15ZM15 10V11H11V15H10V10H15ZM11 29V25H10V30H15V29H11ZM21.9409 16.9327L20.4484 13.9085C20.265 13.5369 19.735 13.5369 19.5516 13.9085L18.0591 16.9327C17.9863 17.0803 17.8455 17.1826 17.6826 17.2062L14.3452 17.6912C13.9351 17.7508 13.7713 18.2548 14.0681 18.544L16.4831 20.8981C16.6009 21.0129 16.6547 21.1784 16.6269 21.3406L16.0568 24.6646C15.9867 25.073 16.4154 25.3845 16.7822 25.1917L19.7673 23.6223C19.913 23.5457 20.087 23.5457 20.2327 23.6223L23.2178 25.1917C23.5846 25.3845 24.0133 25.073 23.9432 24.6646L23.3731 21.3406C23.3453 21.1784 23.3991 21.0129 23.5169 20.8981L25.9319 18.544C26.2287 18.2548 26.0649 17.7508 25.6548 17.6912L22.3174 17.2062C22.1545 17.1826 22.0137 17.0803 21.9409 16.9327Z" fill="#FF0000" fill-opacity="0.5"/>
<path fill-rule="evenodd" clip-rule="evenodd" d="M20.5 19.5V17.5H19.5V19.5H17.5V20.5H19.5V22.5H20.5V20.5H22.5V19.5H20.5Z" fill="#FF0000" fill-opacity="0.5"/>
</svg>
