<svg width="83" height="83" viewBox="0 0 83 83" fill="none" xmlns="http://www.w3.org/2000/svg">
<g filter="url(#filter0_i_4061_694)">
<circle cx="41.5" cy="41.5" r="41.5" fill="transparent" fill-opacity="0.8"/>
</g>
<path d="M41.5937 69.6286C34.881 69.6273 28.3846 67.2665 23.2522 62.9632C18.1198 58.6599 14.6816 52.691 13.5449 46.1109C12.4082 39.5307 13.6462 32.7627 17.0401 27.0024C20.4341 21.2421 25.7656 16.86 32.093 14.6303C38.4204 12.4006 45.3365 12.4668 51.6196 14.817C57.9027 17.1673 63.1486 21.6504 66.4306 27.4746C69.7126 33.2987 70.8195 40.0891 69.5559 46.6463C68.2922 53.2035 64.7393 59.1055 59.5247 63.3099C59.2947 63.4951 59.0003 63.5819 58.706 63.5511C58.4118 63.5203 58.1418 63.3745 57.9556 63.1458C57.7694 62.9171 57.6822 62.6242 57.7132 62.3316C57.7441 62.0389 57.8907 61.7705 58.1206 61.5853C63.221 57.462 66.572 51.5785 67.5056 45.1075C68.4392 38.6365 66.8869 32.0533 63.158 26.6699C59.4292 21.2864 53.7977 17.4982 47.3859 16.0603C40.9741 14.6223 34.253 15.6402 28.5622 18.911C22.8713 22.1819 18.6286 27.4655 16.6798 33.7088C14.7309 39.952 15.2189 46.6965 18.0466 52.5978C20.8744 58.4992 25.8341 63.124 31.9372 65.5506C38.0404 67.9772 44.8388 68.0273 50.9774 65.6909C51.1185 65.6187 51.2734 65.5771 51.4319 65.5689C51.5904 65.5608 51.7488 65.5862 51.8967 65.6435C52.0445 65.7008 52.1784 65.7888 52.2896 65.9014C52.4007 66.0141 52.4865 66.149 52.5412 66.2971C52.596 66.4453 52.6185 66.6033 52.6072 66.7608C52.5959 66.9182 52.5512 67.0715 52.4758 67.2104C52.4005 67.3493 52.2964 67.4707 52.1703 67.5666C52.0443 67.6625 51.8992 67.7307 51.7446 67.7666C48.5038 68.999 45.0634 69.6301 41.5937 69.6286Z" fill="white"/>
<path d="M62.1329 70.2543C61.962 70.2546 61.7934 70.2154 61.6403 70.14C61.4872 70.0645 61.3537 69.9547 61.2505 69.8193L53.6392 59.9369C53.4704 59.7039 53.3985 59.4152 53.4386 59.1308C53.4786 58.8465 53.6274 58.5885 53.8541 58.4106C54.0867 58.24 54.3769 58.1661 54.6633 58.2045C54.9497 58.243 55.2098 58.3908 55.3886 58.6166L62.9845 68.4915C63.1542 68.7235 63.2273 69.0116 63.1888 69.2959C63.1502 69.5802 63.0028 69.8388 62.7774 70.0177C62.592 70.1604 62.367 70.243 62.1329 70.2543Z" fill="white"/>
<path d="M55.9375 40.4688C55.3188 33.25 49.75 27.6813 42.5313 27.0625V32.2188C42.5313 32.8375 42.1188 33.25 41.5 33.25C40.8813 33.25 40.4688 32.8375 40.4688 32.2188V27.0625C33.25 27.6813 27.6813 33.25 27.0625 40.4688H32.2188C32.8375 40.4688 33.25 40.8813 33.25 41.5C33.25 42.1188 32.8375 42.5313 32.2188 42.5313H27.0625C27.6813 49.75 33.25 55.3188 40.4688 55.9375V50.7813C40.4688 50.1625 40.8813 49.75 41.5 49.75C42.1188 49.75 42.5313 50.1625 42.5313 50.7813V55.9375C49.75 55.525 55.3188 49.75 55.9375 42.5313H50.7813C50.1625 42.5313 49.75 42.1188 49.75 41.5C49.75 40.8813 50.1625 40.4688 50.7813 40.4688H55.9375ZM41.5 58C32.425 58 25 50.575 25 41.5C25 32.425 32.425 25 41.5 25C50.575 25 58 32.425 58 41.5C58 50.575 50.575 58 41.5 58ZM41.5 44.5938C39.85 44.5938 38.4063 43.15 38.4063 41.5C38.4063 39.85 39.85 38.4063 41.5 38.4063C43.15 38.4063 44.5938 39.85 44.5938 41.5C44.5938 43.15 43.15 44.5938 41.5 44.5938Z" fill="white"/>
<defs>
<filter id="filter0_i_4061_694" x="0" y="-1" width="83" height="84" filterUnits="userSpaceOnUse" color-interpolation-filters="sRGB">
<feFlood flood-opacity="0" result="BackgroundImageFix"/>
<feBlend mode="normal" in="SourceGraphic" in2="BackgroundImageFix" result="shape"/>
<feColorMatrix in="SourceAlpha" type="matrix" values="0 0 0 0 0 0 0 0 0 0 0 0 0 0 0 0 0 0 127 0" result="hardAlpha"/>
<feOffset dy="-1"/>
<feGaussianBlur stdDeviation="1"/>
<feComposite in2="hardAlpha" operator="arithmetic" k2="-1" k3="1"/>
<feColorMatrix type="matrix" values="0 0 0 0 0.979167 0 0 0 0 0.979167 0 0 0 0 0.979167 0 0 0 0.1 0"/>
<feBlend mode="normal" in2="shape" result="effect1_innerShadow_4061_694"/>
</filter>
</defs>
</svg>
