<svg width="40" height="40" viewBox="0 0 40 40" fill="none" xmlns="http://www.w3.org/2000/svg">
<path fill-rule="evenodd" clip-rule="evenodd" d="M20 38C29.9411 38 38 29.9411 38 20C38 10.0589 29.9411 2 20 2C10.0589 2 2 10.0589 2 20C2 29.9411 10.0589 38 20 38ZM11.2 11H17.8L20 13.125H28.8C30.01 13.125 31 14.0706 31 15.25V25.875C31 26.4386 30.7682 26.9791 30.3556 27.3776C29.9431 27.7761 29.3835 28 28.8 28H11.2C10.6165 28 10.0569 27.7761 9.64437 27.3776C9.23178 26.9791 9 26.4386 9 25.875V13.125C9 11.9456 9.979 11 11.2 11Z" fill="white"/>
<path d="M10.2264 25V17.7273H14.5872V18.5085H11.1071V20.9659H14.2605V21.7472H11.1071V25H10.2264ZM16.9762 17.7273V25H16.0955V17.7273H16.9762ZM18.3443 18.5085V17.7273H23.7988V18.5085H21.5119V25H20.6312V18.5085H18.3443ZM29.1353 19.5455C29.0927 19.1856 28.9199 18.9062 28.6168 18.7074C28.3138 18.5085 27.9421 18.4091 27.5018 18.4091C27.1798 18.4091 26.8981 18.4612 26.6566 18.5653C26.4175 18.6695 26.2305 18.8127 26.0955 18.995C25.9629 19.1773 25.8967 19.3845 25.8967 19.6165C25.8967 19.8106 25.9428 19.9775 26.0352 20.1172C26.1299 20.2545 26.2506 20.3693 26.3974 20.4616C26.5442 20.5516 26.698 20.6262 26.859 20.6854C27.02 20.7422 27.168 20.7884 27.3029 20.8239L28.0415 21.0227C28.2309 21.0724 28.4416 21.1411 28.6737 21.2287C28.908 21.3163 29.1317 21.4358 29.3448 21.5874C29.5603 21.7365 29.7378 21.9283 29.8775 22.1626C30.0172 22.397 30.087 22.6847 30.087 23.0256C30.087 23.4186 29.984 23.7737 29.7781 24.0909C29.5745 24.4081 29.2762 24.6603 28.8832 24.8473C28.4925 25.0343 28.0179 25.1278 27.4592 25.1278C26.9383 25.1278 26.4873 25.0438 26.1062 24.8757C25.7274 24.7076 25.4291 24.4732 25.2113 24.1726C24.9959 23.8719 24.8739 23.5227 24.8455 23.125H25.7546C25.7783 23.3996 25.8706 23.6269 26.0316 23.8068C26.195 23.9844 26.4009 24.117 26.6495 24.2045C26.9004 24.2898 27.1703 24.3324 27.4592 24.3324C27.7953 24.3324 28.0972 24.2779 28.3647 24.169C28.6322 24.0578 28.8441 23.9039 29.0004 23.7074C29.1566 23.5085 29.2347 23.2765 29.2347 23.0114C29.2347 22.7699 29.1673 22.5734 29.0323 22.4219C28.8974 22.2704 28.7198 22.1473 28.4996 22.0526C28.2795 21.9579 28.0415 21.875 27.7859 21.804L26.891 21.5483C26.3228 21.3849 25.873 21.1518 25.5415 20.8487C25.2101 20.5457 25.0444 20.1491 25.0444 19.6591C25.0444 19.2519 25.1545 18.8968 25.3746 18.5938C25.5972 18.2884 25.8955 18.0516 26.2695 17.8835C26.646 17.7131 27.0662 17.6278 27.5302 17.6278C27.9989 17.6278 28.4156 17.7119 28.7802 17.88C29.1448 18.0457 29.4336 18.273 29.6467 18.5618C29.8621 18.8506 29.9757 19.1785 29.9876 19.5455H29.1353Z" fill="white"/>
</svg>
