<svg width="40" height="40" viewBox="0 0 40 40" fill="none" xmlns="http://www.w3.org/2000/svg">
<path fill-rule="evenodd" clip-rule="evenodd" d="M38 20C38 29.9411 29.9411 38 20 38C10.0589 38 2 29.9411 2 20C2 10.0589 10.0589 2 20 2C29.9411 2 38 10.0589 38 20ZM19.5 26V34.9918C11.6132 34.7335 5.26648 28.3868 5.00818 20.5H14.0205C14.2746 23.5798 16.8547 26 20 26H19.5ZM26 20V20.5H34.9918C34.7335 28.3868 28.3868 34.7335 20.5 34.9918V26H20C23.3137 26 26 23.3137 26 20ZM20 14H20.5V5.00818C28.3868 5.26648 34.7335 11.6132 34.9918 19.5H26V20C26 16.6863 23.3137 14 20 14ZM20 14C16.8547 14 14.2746 16.4202 14.0205 19.5H5.00818C5.26648 11.6132 11.6132 5.26648 19.5 5.00818V14H20ZM20 36C28.8366 36 36 28.8366 36 20C36 11.1634 28.8366 4 20 4C11.1634 4 4 11.1634 4 20C4 28.8366 11.1634 36 20 36ZM25.3262 15.9341C25.3262 15.978 25.353 16 25.4067 16H26.5933C26.647 16 26.6738 15.978 26.6738 15.9341V15.8257C26.6738 15.7817 26.647 15.7598 26.5933 15.7598H25.7949C25.7432 15.7598 25.7041 15.7607 25.6777 15.7627V15.7568L26.1597 15.2896C26.312 15.1421 26.4316 15.0093 26.5186 14.8911C26.6064 14.7729 26.6504 14.6323 26.6504 14.4692C26.6504 14.3022 26.5972 14.1611 26.4907 14.0459C26.3853 13.9307 26.2178 13.873 25.9883 13.873C25.8076 13.873 25.6626 13.9229 25.5532 14.0225C25.4448 14.1211 25.3765 14.2344 25.3481 14.3623C25.3325 14.4365 25.3398 14.478 25.3701 14.4868L25.4844 14.5205C25.5283 14.5332 25.5571 14.5117 25.5708 14.4561C25.603 14.3252 25.6553 14.2319 25.7275 14.1763C25.7998 14.1206 25.8906 14.0928 26 14.0928C26.1221 14.0928 26.2129 14.1284 26.2725 14.1997C26.333 14.271 26.3633 14.3579 26.3633 14.4604C26.3633 14.5825 26.3364 14.6904 26.2827 14.7842C26.23 14.877 26.1187 15.0088 25.9487 15.1797L25.3745 15.7583C25.3423 15.7905 25.3262 15.8257 25.3262 15.8638V15.9341ZM14.8155 21.8389C14.8155 21.9463 14.8643 22 14.962 22H15.2315C15.3292 22 15.378 21.9463 15.378 21.8389V20.3125H16.1925C16.8565 20.3125 17.3048 20.2012 17.5372 19.9785C17.7696 19.7539 17.8858 19.4463 17.8858 19.0557C17.8858 18.665 17.7696 18.3584 17.5372 18.1357C17.3048 17.9111 16.8565 17.7988 16.1925 17.7988H14.962C14.8643 17.7988 14.8155 17.8525 14.8155 17.96V21.8389ZM16.2013 19.832H15.378V18.2793H16.2013C16.6309 18.2793 16.9239 18.3408 17.0802 18.4639C17.2364 18.585 17.3145 18.7822 17.3145 19.0557C17.3145 19.3291 17.2364 19.5273 17.0802 19.6504C16.9239 19.7715 16.6309 19.832 16.2013 19.832ZM18.2275 21.8389C18.2275 21.9463 18.2764 22 18.374 22H18.6436C18.7412 22 18.79 21.9463 18.79 21.8389V20.0547H20.835V21.8389C20.835 21.9463 20.8838 22 20.9814 22H21.251C21.3486 22 21.3975 21.9463 21.3975 21.8389V17.96C21.3975 17.8525 21.3486 17.7988 21.251 17.7988H20.9814C20.8838 17.7988 20.835 17.8525 20.835 17.96V19.5742H18.79V17.96C18.79 17.8525 18.7412 17.7988 18.6436 17.7988H18.374C18.2764 17.7988 18.2275 17.8525 18.2275 17.96V21.8389ZM21.9736 21.8389C21.9736 21.9463 22.0224 22 22.12 22H23.2011C24.0292 22 24.6044 21.8154 24.9267 21.4463C25.2509 21.0752 25.413 20.5576 25.413 19.8936C25.413 19.2295 25.2509 18.7148 24.9267 18.3496C24.6044 17.9824 24.0292 17.7988 23.2011 17.7988H22.12C22.0224 17.7988 21.9736 17.8525 21.9736 17.96V21.8389ZM23.1747 21.5195H22.5361V18.2734H23.1747C23.8193 18.2734 24.2529 18.4092 24.4755 18.6807C24.7001 18.9521 24.8124 19.3564 24.8124 19.8936C24.8124 20.4307 24.7001 20.8359 24.4755 21.1094C24.2529 21.3828 23.8193 21.5195 23.1747 21.5195Z" fill="#33DA79" fill-opacity="0.7"/>
</svg>
