<svg width="40" height="40" viewBox="0 0 40 40" fill="none" xmlns="http://www.w3.org/2000/svg">
<path d="M30.5 14L24.5 20H29C29 24.965 24.965 29 20 29C18.5 29 17.045 28.625 15.8 27.95L13.61 30.14C15.455 31.31 17.645 32 20 32C26.63 32 32 26.63 32 20H36.5M11 20C11 15.035 15.035 11 20 11C21.5 11 22.955 11.375 24.2 12.05L26.39 9.86C24.545 8.69 22.355 8 20 8C13.37 8 8 13.37 8 20H3.5L9.5 26L15.5 20M23 20C23 21.665 21.665 23 20 23C18.335 23 17 21.665 17 20C17 18.335 18.35 17 20 17C21.65 17 23 18.35 23 20Z" fill="white"/>
</svg>
