<svg width="40" height="40" viewBox="0 0 40 40" fill="none" xmlns="http://www.w3.org/2000/svg">
<path fill-rule="evenodd" clip-rule="evenodd" d="M38 20C38 29.9411 29.9411 38 20 38C10.0589 38 2 29.9411 2 20C2 10.0589 10.0589 2 20 2C29.9411 2 38 10.0589 38 20ZM11.443 22L8.443 30H27.557L30.557 22H23.1354C21.515 24.3226 20 26 20 26C20 26 18.485 24.3226 16.8646 22H11.443ZM16.1886 21H10.75L7.375 30L7 31H8.068H28.25L31.625 22L32 21H30.932H23.8114C25.4517 18.4912 27 15.4691 27 13C27 11.1435 26.2625 9.36301 24.9497 8.05025C23.637 6.7375 21.8565 6 20 6C18.1435 6 16.363 6.7375 15.0503 8.05025C13.7375 9.36301 13 11.1435 13 13C13 15.4691 14.5483 18.4912 16.1886 21ZM18.2322 14.7678C18.7011 15.2366 19.337 15.5 20 15.5C20.3283 15.5 20.6534 15.4353 20.9567 15.3097C21.26 15.1841 21.5356 14.9999 21.7678 14.7678C21.9999 14.5356 22.1841 14.26 22.3097 13.9567C22.4353 13.6534 22.5 13.3283 22.5 13C22.5 12.337 22.2366 11.7011 21.7678 11.2322C21.2989 10.7634 20.663 10.5 20 10.5C19.337 10.5 18.7011 10.7634 18.2322 11.2322C17.7634 11.7011 17.5 12.337 17.5 13C17.5 13.663 17.7634 14.2989 18.2322 14.7678Z" fill="white"/>
</svg>
