<svg width="40" height="40" viewBox="0 0 40 40" fill="none" xmlns="http://www.w3.org/2000/svg">
<path fill-rule="evenodd" clip-rule="evenodd" d="M8.47777 16.6551L12.0076 29.8287L21.1652 27.3749C21.1283 27.5536 21.0974 27.7345 21.0726 27.9173L12.137 30.3116L13.3933 35H23.7084C24.1411 35.382 24.6156 35.7179 25.124 36H5H4V35V5V4H5H35H36V5V25.124C35.7108 24.6027 35.365 24.1172 34.971 23.6756L35 23.6679V5H27.5176L31.9559 21.5638C31.7686 21.4893 31.5779 21.4217 31.384 21.3612L27 5H5.35481L7.84616 14.2978C8.30388 13.6089 9.21908 13.3676 9.96384 13.7651C10.7556 14.1877 11.0549 15.1721 10.6323 15.9638C10.2176 16.7409 9.26162 17.0436 8.47777 16.6551ZM28.1906 17.8124C29.4951 18.4754 30.2799 19.7557 30.3703 21.1169C30.2029 21.088 30.0337 21.0643 29.8629 21.046C29.7519 19.8939 29.0723 18.8214 27.9641 18.2581C26.2409 17.3823 24.1339 18.0692 23.2581 19.7924C22.6764 20.9369 22.7841 22.2507 23.4269 23.2606C23.3043 23.3797 23.1856 23.5026 23.0708 23.6292C22.2784 22.4627 22.1283 20.9118 22.8124 19.5658C23.8133 17.5965 26.2212 16.8114 28.1906 17.8124ZM26.1678 20.058L27.9641 18.2581L27.5688 20.7701L28.1161 21.0483C26.5014 21.2257 25.0314 21.8837 23.852 22.8762L23.2613 22.9703L25.0576 21.1704L23.9009 18.9058L26.1678 20.058ZM35 35H34.2916C33.8589 35.382 33.3844 35.7179 32.876 36H35H36V35V32.876C35.6895 33.4356 35.3139 33.954 34.8833 34.421L35 34.8564V35ZM7.78447 15.9995L11.5247 29.9581L5 31.7063V5.60769L7.57347 15.212C7.57597 15.4883 7.64904 15.7597 7.78447 15.9995ZM8.2494 15.8028C8.34999 15.9612 8.49166 16.0966 8.66902 16.1912C9.21716 16.4838 9.89867 16.2766 10.1912 15.7284C10.4838 15.1803 10.2766 14.4988 9.72842 14.2062C9.18028 13.9137 8.49877 14.1209 8.20622 14.669C8.12419 14.8227 8.08146 14.9869 8.07451 15.1501L8.21262 15.6655L8.77565 15.1234L8.41849 14.3883L9.13958 14.7731L9.72842 14.2062L9.58523 15.0109L10.3063 15.3958L9.49674 15.5083L9.35356 16.313L8.99639 15.5778L8.21811 15.686L8.2494 15.8028ZM11.6541 30.441L12.8756 35H5V32.224L11.6541 30.441ZM16.0583 33.7644C17.0328 34.2845 18.2444 33.9162 18.7644 32.9417C19.2845 31.9672 18.9162 30.7556 17.9417 30.2356C16.9672 29.7155 15.7556 30.0838 15.2356 31.0583C14.7155 32.0328 15.0838 33.2444 16.0583 33.7644ZM18.3233 32.7063C17.9333 33.4371 17.0246 33.7134 16.2937 33.3233C15.5629 32.9333 15.2866 32.0246 15.6767 31.2937C16.0667 30.5629 16.9754 30.2866 17.7063 30.6767L16.9211 31.4325L15.9597 30.9194L16.4359 31.8996L15.6508 32.6555L16.7302 32.5055L17.2065 33.4857L17.3974 32.4128L18.4768 32.2628L17.5154 31.7496L17.7063 30.6767C18.4371 31.0667 18.7134 31.9754 18.3233 32.7063ZM17.3031 9.17776C17.8265 10.3805 17.2757 11.7798 16.073 12.3031C14.8703 12.8265 13.471 12.2758 12.9476 11.073C12.4243 9.87026 12.975 8.47098 14.1778 7.94763C15.3805 7.42427 16.7798 7.97502 17.3031 9.17776ZM15.8735 11.8447C16.823 11.4315 17.2578 10.3268 16.8447 9.37726C16.4315 8.42773 15.3268 7.99292 14.3773 8.4061C13.4277 8.81928 12.9929 9.92397 13.4061 10.8735C13.8193 11.823 14.924 12.2578 15.8735 11.8447ZM14.5082 9.76206L14.3773 8.4061L15.2802 9.42613L16.5293 8.88259L15.8383 10.0565L16.7412 11.0766L15.4111 10.7821L14.7201 11.9561L14.5891 10.6001L13.2591 10.3056L14.5082 9.76206ZM30.7353 10.4632C31.5271 10.8858 32.5115 10.5865 32.934 9.79471C33.3566 9.00295 33.0573 8.01855 32.2655 7.59599C31.4738 7.17343 30.4894 7.47272 30.0668 8.26448C29.6443 9.05623 29.9436 10.0406 30.7353 10.4632ZM32.4929 9.55929C32.2004 10.1074 31.5189 10.3146 30.9707 10.0221C30.4226 9.72955 30.2154 9.04804 30.5079 8.4999C30.8005 7.95176 31.482 7.74455 32.0301 8.0371L31.4413 8.60397L30.7202 8.21912L31.0774 8.95432L30.4885 9.52119L31.2981 9.40869L31.6553 10.1439L31.7985 9.33916L32.608 9.22667L31.8869 8.84182L32.0301 8.0371C32.5783 8.32964 32.7855 9.01115 32.4929 9.55929ZM8.4336 29.6323C9.22536 30.0549 10.2098 29.7556 10.6323 28.9638C11.0549 28.1721 10.7556 27.1877 9.96384 26.7651C9.17208 26.3426 8.18768 26.6418 7.76512 27.4336C7.34255 28.2254 7.64185 29.2098 8.4336 29.6323ZM10.1912 28.7284C9.89867 29.2766 9.21716 29.4838 8.66902 29.1912C8.12088 28.8987 7.91368 28.2172 8.20622 27.669C8.49877 27.1209 9.18028 26.9137 9.72842 27.2062L9.13958 27.7731L8.41849 27.3883L8.77565 28.1234L8.18681 28.6903L8.99639 28.5778L9.35356 29.313L9.49674 28.5083L10.3063 28.3958L9.58523 28.0109L9.72842 27.2062C10.2766 27.4988 10.4838 28.1803 10.1912 28.7284ZM26.1716 31.8284C26.9217 32.5786 27.9391 33 29 33V31L31.6667 33.6667L29 36.3333V34.3333C27.5855 34.3333 26.229 33.7714 25.2288 32.7712C24.2286 31.771 23.6667 30.4145 23.6667 29C23.6667 27.9533 23.9733 26.98 24.4933 26.16L25.4667 27.1333C25.1667 27.6867 25 28.3333 25 29C25 30.0609 25.4214 31.0783 26.1716 31.8284ZM29 21.6667V23.6667C30.4145 23.6667 31.771 24.2286 32.7712 25.2288C33.7714 26.229 34.3333 27.5855 34.3333 29C34.3333 30.0467 34.0267 31.02 33.5067 31.84L32.5333 30.8667C32.8333 30.3133 33 29.6667 33 29C33 27.9391 32.5786 26.9217 31.8284 26.1716C31.0783 25.4214 30.0609 25 29 25V27L26.3333 24.3333L29 21.6667Z" fill="white"/>
</svg>
