<svg width="40" height="40" viewBox="0 0 40 40" fill="none" xmlns="http://www.w3.org/2000/svg">
<path fill-rule="evenodd" clip-rule="evenodd" d="M32.3137 6.87084L25.8883 18L16.813 2.28126C17.8474 2.09645 18.9125 2 20 2C24.7631 2 29.0942 3.85008 32.3137 6.87084ZM14.7842 2.76727L21.2121 13.9006L3.0597 13.9006C4.97751 8.57497 9.33528 4.41427 14.7842 2.76727ZM2.46889 15.9006C2.16218 17.2174 2 18.5898 2 20C2 24.4276 3.59857 28.4817 6.25002 31.6169L15.3238 15.9006H2.46889ZM7.68631 33.1292C10.9058 36.1499 15.2369 38 20 38C21.0875 38 22.1525 37.9036 23.1869 37.7187L14.1117 22L7.68631 33.1292ZM25.2157 37.2327C30.6647 35.5857 35.0225 31.425 36.9403 26.0994L18.7879 26.0994L25.2157 37.2327ZM37.5311 24.0994L24.6762 24.0994L33.75 8.38312C36.4014 11.5183 38 15.5724 38 20C38 21.4102 37.8378 22.7826 37.5311 24.0994Z" fill="white"/>
</svg>
