<svg width="40" height="40" viewBox="0 0 40 40" fill="none" xmlns="http://www.w3.org/2000/svg">
<path fill-rule="evenodd" clip-rule="evenodd" d="M20 38C29.9411 38 38 29.9411 38 20C38 10.0589 29.9411 2 20 2C10.0589 2 2 10.0589 2 20C2 29.9411 10.0589 38 20 38ZM15.7128 7.53605L16.2489 7L18.3987 9.14985L17.9136 9.635L26.2938 18.0152L26.1004 18.2086C26.3934 18.5728 26.5688 19.0357 26.5688 19.5396C26.5688 20.0098 26.4161 20.4443 26.1576 20.7963L29.9662 24.6048C30.6658 23.9598 31.325 23.5923 31.5008 23.7681L32.2079 24.4753C32.3837 24.6511 32.0162 25.3102 31.3712 26.0099L31.9121 26.5508C31.9534 26.5411 31.9878 26.5455 32.0088 26.5665C32.0622 26.6199 32.0083 26.7603 31.8884 26.8802C31.7685 27.0001 31.628 27.0541 31.5746 27.0007C31.5537 26.9798 31.5493 26.9456 31.5588 26.9046L31.0209 26.3667C30.2826 27.0733 29.5642 27.4884 29.3795 27.3037L28.6724 26.5966C28.4876 26.4118 28.9027 25.6935 29.6094 24.9552L25.8162 21.162C25.446 21.4755 24.967 21.6646 24.4438 21.6646C23.9399 21.6646 23.477 21.4892 23.1128 21.1962L22.9194 21.3896L18.4192 16.8893L17.7826 17.5259C17.1765 17.9868 16.0971 17.7403 15.2907 16.9308C14.4776 16.1147 14.2347 15.02 14.7094 14.4146C14.6855 14.4345 14.6624 14.4556 14.6402 14.4779C14.0614 15.0589 14.2857 16.2261 15.1413 17.0849C15.9397 17.8864 17.0058 18.136 17.6151 17.6934L16.3188 18.9897V21.1646C14.8728 21.1646 13.6473 22.109 13.2255 23.4146H11.8939L10.4234 24.8851L10.4208 24.8826C9.83596 25.4491 8.6786 25.2212 7.82555 24.3682C6.96678 23.5094 6.74162 22.3422 7.32265 21.7612C7.35836 21.7254 7.39629 21.6928 7.43622 21.6631L15.3146 13.7847L14.5988 13.069L14.6095 13.0778C14.1244 12.4849 14.4401 11.3202 15.3488 10.4183C16.1998 9.57364 17.2803 9.24793 17.9014 9.60881C17.3308 9.10833 16.1566 9.42161 15.2408 10.3305C14.3069 11.2575 13.9938 12.4544 14.537 13.0116L14.0541 13.4945L11.9042 11.3447L12.4116 10.8373L12.7752 11.2008L16.0764 7.89963L15.7128 7.53605ZM21.3188 30.4146H19.3188V24.4146C19.3188 22.7577 17.9757 21.4146 16.3188 21.4146C14.6619 21.4146 13.3188 22.7577 13.3188 24.4146V30.4146H11.3188V32.4146H21.3188V30.4146ZM19.1576 10.0882L18.8531 10.3927L21.8752 13.4147L22.1797 13.1102L19.1576 10.0882ZM32.2297 24.5113C31.9802 24.4036 31.2382 24.8665 30.5054 25.5992C29.7727 26.332 29.3098 27.074 29.4175 27.3236C29.4013 27.3165 29.3871 27.3071 29.3752 27.2952C29.1799 27.0999 29.6543 26.309 30.4347 25.5285C31.2151 24.7481 32.0061 24.2737 32.2014 24.469C32.2133 24.4809 32.2227 24.4951 32.2297 24.5113ZM30.8439 25.8405C30.7534 25.9314 30.7156 26.0425 30.7537 26.0978L30.7506 26.0956L30.7474 26.093L30.7435 26.0894C30.6924 26.0385 30.7291 25.9189 30.8254 25.8221C30.9217 25.7253 31.0412 25.6881 31.0923 25.7389L31.0952 25.7419C31.0972 25.7442 31.099 25.7465 31.1007 25.7489C31.0451 25.7113 30.9343 25.7496 30.8439 25.8405ZM24.3465 19.4246C23.6287 20.1457 23.2361 20.9352 23.4197 21.2565C23.3987 21.2447 23.3797 21.2304 23.3628 21.2136C23.0865 20.9385 23.4821 20.093 24.2464 19.3251C25.0108 18.5572 25.8545 18.1576 26.1308 18.4327C26.1477 18.4494 26.162 18.4683 26.1739 18.4892C25.8516 18.3074 25.0641 18.7036 24.3465 19.4246Z" fill="#FF0000" fill-opacity="0.5"/>
</svg>
