<svg width="40" height="40" viewBox="0 0 40 40" fill="none" xmlns="http://www.w3.org/2000/svg">
<path fill-rule="evenodd" clip-rule="evenodd" d="M38 20C38 29.9411 29.9411 38 20 38C10.0589 38 2 29.9411 2 20C2 10.0589 10.0589 2 20 2C29.9411 2 38 10.0589 38 20ZM12.22 10C11.6312 10 11.0666 10.2339 10.6502 10.6502C10.2339 11.0666 10 11.6312 10 12.22V17H10.5V23H10V27.78C10 29 11 30 12.22 30H27.78C28.3688 30 28.9334 29.7661 29.3498 29.3498C29.7661 28.9334 30 28.3688 30 27.78V23H29.5V17H30V12.22C30 11 29 10 27.78 10H12.22ZM14.3431 14.3431C15.8434 12.8429 17.8783 12 20 12C22.1217 12 24.1566 12.8429 25.6569 14.3431C27.1571 15.8434 28 17.8783 28 20C28 22.1217 27.1571 24.1566 25.6569 25.6569C24.1566 27.1571 22.1217 28 20 28C17.8783 28 15.8434 27.1571 14.3431 25.6569C12.8429 24.1566 12 22.1217 12 20C12 17.8783 12.8429 15.8434 14.3431 14.3431ZM20 22C21.1046 22 22 21.1046 22 20C22 18.8954 21.1046 18 20 18C18.8954 18 18 18.8954 18 20C18 21.1046 18.8954 22 20 22ZM26.25 27.5H27.5V29.5L29.25 26H28V24L26.25 27.5Z" fill="white"/>
</svg>
