<svg width="40" height="40" viewBox="0 0 40 40" fill="none" xmlns="http://www.w3.org/2000/svg">
<g clip-path="url(#clip0_39_828)">
<path fill-rule="evenodd" clip-rule="evenodd" d="M38.3867 15.3412C40.9596 24.9436 35.2611 34.8137 25.6587 37.3867C16.0564 39.9596 6.18629 34.2611 3.61334 24.6587C1.04038 15.0563 6.73887 5.18627 16.3413 2.61332C25.9436 0.0403687 35.8137 5.73885 38.3867 15.3412ZM16.3091 29.5391L21.1387 28.245C22.0538 27.9998 22.5668 26.65 22.6245 24.7411L31.4704 22.3708C32.2706 22.1564 32.3399 19.8203 31.6252 17.153C30.9105 14.4856 29.6824 12.4972 28.8822 12.7116L20.0363 15.0818C19.0318 13.4575 17.9127 12.545 16.9976 12.7902L12.168 14.0843C10.5676 14.5131 10.1972 18.3204 11.3407 22.5882C12.4843 26.8559 14.7087 29.968 16.3091 29.5391ZM30.858 22.0173C31.6582 21.8029 31.7855 19.683 31.1422 17.2824C30.499 14.8818 29.3288 13.1095 28.5286 13.3239C27.7284 13.5384 27.6012 15.6582 28.2444 18.0588C28.8877 20.4594 30.0578 22.2317 30.858 22.0173ZM18.3311 15.5451C17.5982 15.8763 17.5541 18.1513 18.2471 20.7376C18.9401 23.324 20.1158 25.2721 20.9161 25.1925C20.8931 25.2029 20.8695 25.2113 20.8452 25.2178C20.045 25.4323 18.8169 23.4438 18.1022 20.7764C17.3875 18.1091 17.4568 15.773 18.257 15.5586C18.2813 15.5521 18.306 15.5476 18.3311 15.5451ZM16.4119 21.2294C17.4543 25.12 19.4295 27.993 20.8866 27.787C20.8479 27.8027 20.8083 27.8159 20.7678 27.8268C19.3008 28.2199 17.2424 25.2951 16.1704 21.2941C15.0983 17.2931 15.4185 13.731 16.8855 13.3379C16.926 13.327 16.9669 13.3187 17.0083 13.3129C15.6434 13.8631 15.3694 17.3387 16.4119 21.2294Z" fill="white"/>
</g>
<defs>
<clipPath id="clip0_39_828">
<rect width="40" height="40" fill="white"/>
</clipPath>
</defs>
</svg>
