<svg width="40" height="40" viewBox="0 0 40 40" fill="none" xmlns="http://www.w3.org/2000/svg">
<path fill-rule="evenodd" clip-rule="evenodd" d="M38 20C38 29.9411 29.9411 38 20 38C10.0589 38 2 29.9411 2 20C2 10.0589 10.0589 2 20 2C29.9411 2 38 10.0589 38 20ZM28.7997 28.1588L27.6092 23.1586L14.4387 26.6337L15.6599 31.1911C17.0058 31.7135 18.4695 32 20 32C23.4767 32 26.6081 30.5214 28.7997 28.1588ZM29.2044 27.6997C30.5342 26.1118 31.4606 24.1747 31.8263 22.0458L28.0928 23.031L29.2044 27.6997ZM31.8943 21.5995C31.964 21.0763 32 20.5423 32 20C32 15.0584 29.0131 10.8145 24.7462 8.97514L27.9769 22.5444L31.8724 21.5166L31.8943 21.5995ZM24.1779 8.74731L27.4933 22.672L14.3093 26.1508L10.6467 12.4816C12.8462 9.74878 16.2189 8 20 8C21.4693 8 22.8769 8.26406 24.1779 8.74731ZM10.2636 12.984L13.8259 26.2783L10.4974 27.1566L10.5662 27.4173C8.95891 25.3758 8 22.7999 8 20C8 17.3805 8.8393 14.9571 10.2636 12.984ZM10.7243 27.6138C11.8919 29.0345 13.3794 30.1823 15.0768 30.9468L13.9553 26.7613L10.7243 27.6138ZM26.0093 21.8312C25.3368 23.1544 23.719 23.6818 22.3958 23.0093C21.0726 22.3368 20.5452 20.719 21.2177 19.3958C21.8902 18.0726 23.508 17.5452 24.8312 18.2177C26.1544 18.8902 26.6818 20.508 26.0093 21.8312ZM22.6224 22.5636C23.6993 23.111 25.0162 22.6817 25.5636 21.6047C26.111 20.5277 25.6816 19.2108 24.6046 18.6634C23.5276 18.116 22.2108 18.5454 21.6634 19.6224C21.116 20.6994 21.5454 22.0162 22.6224 22.5636ZM23.482 19.7884L24.6046 18.6634L24.3576 20.2334L25.7744 20.9535L24.2049 21.2037L23.9579 22.7737L23.2349 21.3584L21.6654 21.6086L22.7881 20.4836L22.0651 19.0683L23.482 19.7884ZM17.4482 28.7682C18.1486 29.142 19.0194 28.8772 19.3932 28.1768C19.767 27.4764 19.5022 26.6056 18.8018 26.2318C18.1014 25.858 17.2306 26.1228 16.8568 26.8232C16.483 27.5236 16.7478 28.3944 17.4482 28.7682ZM18.9521 27.9414C18.7083 28.3982 18.1404 28.5709 17.6836 28.3271C17.2268 28.0833 17.0541 27.5154 17.2979 27.0586C17.5417 26.6018 18.1096 26.4291 18.5664 26.6729L18.0757 27.1453L17.4748 26.8246L17.7724 27.4373L17.2817 27.9097L17.9564 27.8159L18.254 28.4286L18.3734 27.758L19.048 27.6642L18.4471 27.3435L18.5664 26.6729C19.0232 26.9167 19.1959 27.4846 18.9521 27.9414ZM18.4864 13.1613C18.8548 14.0079 18.4671 14.9929 17.6204 15.3614C16.7738 15.7298 15.7888 15.3421 15.4203 14.4954C15.0519 13.6487 15.4396 12.6637 16.2863 12.2953C17.133 11.9269 18.118 12.3146 18.4864 13.1613ZM17.4209 14.9029C18.0144 14.6446 18.2862 13.9542 18.0279 13.3608C17.7697 12.7673 17.0792 12.4955 16.4858 12.7538C15.8923 13.012 15.6206 13.7024 15.8788 14.2959C16.137 14.8894 16.8275 15.1611 17.4209 14.9029ZM16.5676 13.6013L16.4858 12.7538L17.0501 13.3913L17.8308 13.0516L17.3989 13.7853L17.9632 14.4228L17.132 14.2388L16.7 14.9725L16.6182 14.125L15.7869 13.941L16.5676 13.6013ZM26.6213 14.2049C27.2075 14.5178 27.9363 14.2962 28.2492 13.71C28.562 13.1238 28.3405 12.3949 27.7542 12.0821C27.168 11.7692 26.4392 11.9908 26.1263 12.577C25.8135 13.1632 26.0351 13.8921 26.6213 14.2049ZM27.8081 13.4746C27.6252 13.8172 27.1993 13.9467 26.8567 13.7638C26.5141 13.581 26.3846 13.155 26.5675 12.8125C26.7503 12.4699 27.1762 12.3404 27.5188 12.5232L27.1508 12.8775L26.7001 12.637L26.9233 13.0965L26.5553 13.4508L27.0613 13.3804L27.2845 13.8399L27.374 13.337L27.88 13.2667L27.4293 13.0262L27.5188 12.5232C27.8614 12.706 27.9909 13.132 27.8081 13.4746ZM15.6893 19.1944C15.3765 19.7806 14.6476 20.0022 14.0614 19.6893C13.4752 19.3765 13.2536 18.6476 13.5665 18.0614C13.8793 17.4752 14.6082 17.2536 15.1944 17.5665C15.7806 17.8793 16.0022 18.6082 15.6893 19.1944ZM14.2968 19.2482C14.6394 19.4311 15.0654 19.3016 15.2482 18.959C15.431 18.6164 15.3015 18.1904 14.959 18.0076C14.6164 17.8248 14.1904 17.9543 14.0076 18.2968C13.8247 18.6394 13.9543 19.0654 14.2968 19.2482ZM14.5909 18.3619L14.959 18.0076L14.8695 18.5106L15.3202 18.7511L14.8142 18.8214L14.7247 19.3243L14.5014 18.8648L13.9955 18.9352L14.3635 18.5809L14.1403 18.1214L14.5909 18.3619ZM11.0614 25.6893C11.6476 26.0022 12.3765 25.7806 12.6893 25.1944C13.0022 24.6082 12.7806 23.8793 12.1944 23.5665C11.6082 23.2536 10.8793 23.4752 10.5665 24.0614C10.2536 24.6476 10.4752 25.3765 11.0614 25.6893ZM12.2482 24.959C12.0654 25.3016 11.6394 25.4311 11.2968 25.2482C10.9543 25.0654 10.8247 24.6394 11.0076 24.2968C11.1904 23.9543 11.6164 23.8248 11.959 24.0076L11.5909 24.3619L11.1403 24.1214L11.3635 24.5809L10.9955 24.9352L11.5014 24.8648L11.7247 25.3243L11.8142 24.8214L12.3202 24.7511L11.8695 24.5106L11.959 24.0076C12.3015 24.1904 12.431 24.6164 12.2482 24.959ZM26.9992 25.585C26.6863 26.1712 25.9575 26.3928 25.3713 26.0799C24.7851 25.7671 24.5635 25.0382 24.8764 24.452C25.1892 23.8658 25.918 23.6442 26.5042 23.9571C27.0905 24.27 27.312 24.9988 26.9992 25.585ZM25.6067 25.6388C25.9493 25.8217 26.3752 25.6922 26.5581 25.3496C26.7409 25.007 26.6114 24.581 26.2688 24.3982C25.9262 24.2154 25.5003 24.3449 25.3175 24.6875C25.1346 25.03 25.2641 25.456 25.6067 25.6388ZM25.9008 24.7525L26.2688 24.3982L26.1793 24.9012L26.63 25.1417L26.124 25.212L26.0345 25.7149L25.8113 25.2554L25.3053 25.3258L25.6734 24.9715L25.4501 24.512L25.9008 24.7525ZM33 20C33 27.1797 27.1797 33 20 33C12.8203 33 7 27.1797 7 20C7 12.8203 12.8203 7 20 7C27.1797 7 33 12.8203 33 20Z" fill="white"/>
</svg>
