<svg width="40" height="40" viewBox="0 0 40 40" fill="none" xmlns="http://www.w3.org/2000/svg">
<path fill-rule="evenodd" clip-rule="evenodd" d="M38 20C38 29.9411 29.9411 38 20 38C10.0589 38 2 29.9411 2 20C2 10.0589 10.0589 2 20 2C29.9411 2 38 10.0589 38 20ZM23.4071 18.0071L24.8213 19.4213L23.5355 20.7071L24.9497 22.1213L26.364 20.7071L26.3284 20.6716L29 18C29.8 17.3 29.8 16 29 15.2L27.2 13.4L30.2 10.4L28.8 9L25.8 12L24 10.2C23.3 9.4 22.2142 9.30051 21.4142 10.1005L18.45 13.05L18.4574 13.0574L17.1716 14.3432L18.5858 15.7574L19.8716 14.4716L21.2858 15.8858L20 17.1716L22.1213 19.2929L23.4071 18.0071ZM22.1213 22.1213L20.7 20.7L19 22.4L16.9 20.3L18.6 18.6L17.2 17.2L15.5 18.9L14.0574 17.4574L11.2 20.3C10.4 21.1 10.4 22.4 11.2 23.1L13 24.9L9 28.9L10.4 30.3L14.4 26.3L16.2 28.1C17 28.9 18.3 28.9 19 28.1L21.8 25.3L20.4 23.9L22.1213 22.1213Z" fill="white"/>
</svg>
