<svg width="40" height="40" viewBox="0 0 40 40" fill="none" xmlns="http://www.w3.org/2000/svg">
<path fill-rule="evenodd" clip-rule="evenodd" d="M20 38C29.9411 38 38 29.9411 38 20C38 10.0589 29.9411 2 20 2C10.0589 2 2 10.0589 2 20C2 29.9411 10.0589 38 20 38ZM24.1467 13.1867L26.08 11.2533C28.8533 13.1733 30.6667 16.3733 30.6667 20C30.6667 22.829 29.5429 25.5421 27.5425 27.5425C25.5421 29.5429 22.829 30.6667 20 30.6667C17.171 30.6667 14.4579 29.5429 12.4575 27.5425C10.4571 25.5421 9.33333 22.829 9.33333 20C9.33333 16.3733 11.1467 13.1733 13.92 11.2533L15.84 13.1733C13.5467 14.5867 12 17.1067 12 20C12 22.1217 12.8429 24.1566 14.3431 25.6569C15.8434 27.1571 17.8783 28 20 28C22.1217 28 24.1566 27.1571 25.6569 25.6569C27.1571 24.1566 28 22.1217 28 20C28 17.1067 26.4533 14.5867 24.1467 13.1867ZM18.6667 8H21.3333V21.3333H18.6667V8Z" fill="white"/>
</svg>
