<svg width="40" height="40" viewBox="0 0 40 40" fill="none" xmlns="http://www.w3.org/2000/svg">
<path fill-rule="evenodd" clip-rule="evenodd" d="M20 38C29.9411 38 38 29.9411 38 20C38 10.0589 29.9411 2 20 2C10.0589 2 2 10.0589 2 20C2 29.9411 10.0589 38 20 38ZM12 14C12 12.8954 12.8954 12 14 12H26C27.1046 12 28 12.8954 28 14V26C28 27.1046 27.1046 28 26 28H14C12.8954 28 12 27.1046 12 26V25H10V26C10 28.2091 11.7909 30 14 30H26C28.2091 30 30 28.2091 30 26V14C30 11.7909 28.2091 10 26 10H14C11.7909 10 10 11.7909 10 14V15H12V14ZM14.1667 24.1666V20.8333H26V19.1583H14.1667V15.8333L10 20L14.1667 24.1666Z" fill="white"/>
</svg>
