<svg width="100" height="100" viewBox="0 0 100 100" fill="none" xmlns="http://www.w3.org/2000/svg">
<g clip-path="url(#clip0_9_3)">
<path d="M41.376 52.3351C42.0941 53.0533 42.6834 53.7715 43.1437 54.4896C43.6041 55.1894 43.9447 55.9167 44.1657 56.6717C44.3867 57.4267 44.4926 58.2231 44.4834 59.0609C44.4742 59.8988 44.3591 60.8057 44.1381 61.7817L53.2808 64.3504L48.2813 71.7806L40.2711 68.0241L38.6138 69.7918L44.1105 75.7857L38.1719 81.7243C36.1187 79.579 34.0701 77.4476 32.0261 75.3299C29.9914 73.2031 27.952 71.0624 25.908 68.908C24.8676 67.8307 23.8364 66.7627 22.8144 65.7039C21.7924 64.6451 20.7796 63.5586 19.7761 62.4446C20.1812 61.5607 20.6185 60.7274 21.0881 59.9448C21.5576 59.1622 22.064 58.4164 22.6072 57.7075C23.1505 56.9801 23.7305 56.2804 24.3474 55.6083C24.9643 54.9177 25.6134 54.2318 26.2947 53.5505C27.3443 52.5009 28.5044 51.6354 29.775 50.9541C31.0456 50.2543 32.3484 49.817 33.6834 49.6421C35.0184 49.4671 36.3443 49.5868 37.6609 50.0011C38.9867 50.4063 40.2251 51.1843 41.376 52.3351ZM35.6307 58.9643C35.244 58.5776 34.8343 58.2783 34.4016 58.0666C33.978 57.8456 33.5453 57.7259 33.1034 57.7075C32.6614 57.6707 32.2195 57.7443 31.7775 57.9285C31.3356 58.0942 30.9075 58.3842 30.4931 58.7985C30.309 58.9827 30.1433 59.176 29.996 59.3786C29.8394 59.5719 29.7013 59.7745 29.5816 59.9863L34.4982 65.3448L34.8297 65.0134C35.2256 64.6174 35.5755 64.1663 35.8793 63.6599C36.1923 63.1443 36.4041 62.6195 36.5146 62.0855C36.6343 61.5423 36.6297 61.0036 36.5008 60.4696C36.3811 59.9264 36.0911 59.4246 35.6307 58.9643ZM71.8837 46.0789L65.9175 53.8129L61.9677 51.5203L58.8188 54.6692L61.2495 58.4809L53.5155 64.8338L40.6164 40.9413L47.9084 32.8759L71.8837 46.0789ZM57.2444 47.7914L51.3887 44.0349L55.1728 49.863L57.2444 47.7914ZM79.2863 34.8094L75.6403 31.2186L72.1323 34.616L67.9339 30.5281L71.2761 26.9649L68.0168 23.7056L71.8561 18.9824L75.4193 22.435L78.9272 18.7061L83.7057 23.3742L80.032 26.9373L83.7057 30.5005L79.2863 34.8094Z" fill="white"/>
</g>
<defs>
<clipPath id="clip0_9_3">
<rect width="100" height="100" fill="white"/>
</clipPath>
</defs>
</svg>
