<svg width="100" height="100" viewBox="0 0 100 100" fill="none" xmlns="http://www.w3.org/2000/svg">
<path d="M48.6892 43.376C47.9711 44.0941 47.2529 44.6834 46.5348 45.1437C45.835 45.6041 45.1077 45.9447 44.3527 46.1657C43.5977 46.3867 42.8013 46.4926 41.9634 46.4834C41.1256 46.4742 40.2187 46.3591 39.2427 46.1381L36.6739 55.2808L29.2438 50.2813L33.0003 42.2711L31.2325 40.6138L25.2387 46.1105L19.3001 40.1719C21.4454 38.1187 23.5768 36.0701 25.6945 34.0261C27.8213 31.9914 29.962 29.952 32.1164 27.908C33.1937 26.8676 34.2617 25.8364 35.3205 24.8144C36.3793 23.7924 37.4658 22.7796 38.5798 21.7761C39.4637 22.1812 40.2969 22.6185 41.0796 23.0881C41.8622 23.5576 42.6079 24.064 43.3169 24.6072C44.0442 25.1505 44.744 25.7305 45.4161 26.3474C46.1066 26.9643 46.7926 27.6134 47.4739 28.2947C48.5235 29.3443 49.389 30.5044 50.0703 31.775C50.77 33.0456 51.2074 34.3484 51.3823 35.6834C51.5573 37.0184 51.4376 38.3443 51.0232 39.6609C50.6181 40.9867 49.8401 42.2251 48.6892 43.376ZM42.0601 37.6307C42.4468 37.244 42.746 36.8343 42.9578 36.4016C43.1788 35.978 43.2985 35.5453 43.3169 35.1034C43.3537 34.6614 43.2801 34.2195 43.0959 33.7775C42.9302 33.3356 42.6402 32.9075 42.2258 32.4931C42.0417 32.309 41.8483 32.1433 41.6458 31.996C41.4524 31.8394 41.2499 31.7013 41.0381 31.5816L35.6796 36.4982L36.011 36.8297C36.4069 37.2256 36.8581 37.5755 37.3645 37.8793C37.8801 38.1923 38.4049 38.4041 38.9389 38.5146C39.4821 38.6343 40.0207 38.6297 40.5547 38.5008C41.098 38.3811 41.5998 38.0911 42.0601 37.6307ZM54.9455 73.8837L47.2115 67.9175L49.5041 63.9677L46.3552 60.8188L42.5435 63.2495L36.1906 55.5155L60.083 42.6164L68.1485 49.9084L54.9455 73.8837ZM53.233 59.2444L56.9895 53.3887L51.1613 57.1728L53.233 59.2444ZM67.4441 73.5109L71.5321 69.3124L80.8681 77.8198L76.2001 82.5983L67.4441 73.5109Z" fill="white"/>
</svg>
