<svg width="40" height="40" viewBox="0 0 40 40" fill="none" xmlns="http://www.w3.org/2000/svg">
<path fill-rule="evenodd" clip-rule="evenodd" d="M20 38C29.9411 38 38 29.9411 38 20C38 10.0589 29.9411 2 20 2C10.0589 2 2 10.0589 2 20C2 29.9411 10.0589 38 20 38ZM20 9.73333C17.1638 9.73333 14.61 10.8883 12.7492 12.7492L9.73333 9.73333V18.7167H18.7167L14.5843 14.5843C15.9703 13.1855 17.8697 12.3 20 12.3C22.0422 12.3 24.0007 13.1112 25.4447 14.5553C26.8888 15.9993 27.7 17.9578 27.7 20C27.7 22.0422 26.8888 24.0007 25.4447 25.4447C24.0007 26.8888 22.0422 27.7 20 27.7C16.6505 27.7 13.8015 25.5568 12.7492 22.5667H10.0798C11.222 26.9942 15.2132 30.2667 20 30.2667C22.7229 30.2667 25.3343 29.185 27.2596 27.2596C29.185 25.3343 30.2667 22.7229 30.2667 20C30.2667 17.2771 29.185 14.6657 27.2596 12.7404C25.3343 10.815 22.7229 9.73333 20 9.73333Z" fill="white"/>
</svg>
