<svg width="40" height="40" viewBox="0 0 40 40" fill="none" xmlns="http://www.w3.org/2000/svg">
<path fill-rule="evenodd" clip-rule="evenodd" d="M20 38C29.9411 38 38 29.9411 38 20C38 10.0589 29.9411 2 20 2C10.0589 2 2 10.0589 2 20C2 29.9411 10.0589 38 20 38ZM16.9367 22H21.79C21.1367 22.6767 20.6117 23.4583 20.25 24.3333H17.4383C17.9167 26.0017 18.6983 27.5533 19.6667 28.9533C19.725 28.8717 19.7717 28.79 19.8183 28.7083C20.005 29.6417 20.355 30.505 20.8333 31.275C20.46 31.3333 20.0634 31.3333 19.6667 31.3333H19.6667C13.25 31.3333 8 26.0833 8 19.6667C8 13.25 13.215 8 19.6667 8C26.0833 8 31.3333 13.25 31.3333 19.6667C31.3333 20.0633 31.3333 20.46 31.275 20.8333C30.575 20.4017 29.8167 20.075 29 19.8767V19.6667C29 18.8617 28.8833 18.08 28.6967 17.3333H24.7533C24.8467 18.1033 24.9167 18.8733 24.9167 19.6667V20.04C24.0067 20.3317 23.1667 20.7867 22.4667 21.37C22.5367 20.8333 22.5833 20.25 22.5833 19.6667C22.5833 18.8733 22.5017 18.0917 22.3967 17.3333H16.9367C16.82 18.0917 16.75 18.8733 16.75 19.6667C16.75 20.46 16.82 21.23 16.9367 22ZM24.2983 15H27.74C26.62 13.0633 24.835 11.5817 22.6883 10.8467C23.3883 12.1417 23.925 13.5417 24.2983 15ZM21.895 15C21.4167 13.3317 20.635 11.7683 19.6667 10.3683C18.6983 11.7683 17.9167 13.3317 17.4383 15H21.895ZM10.3333 19.6667C10.3333 20.4717 10.45 21.2533 10.6367 22H14.58C14.4867 21.23 14.4167 20.46 14.4167 19.6667C14.4167 18.8733 14.4867 18.1033 14.58 17.3333H10.6367C10.45 18.08 10.3333 18.8617 10.3333 19.6667ZM15 24.3333H11.5933C12.7017 26.2583 14.4983 27.7517 16.6333 28.4867C15.9333 27.1917 15.4083 25.7917 15 24.3333ZM11.5933 15H15C15.4083 13.5417 15.9333 12.1417 16.6333 10.8467C14.4983 11.57 12.7017 13.0633 11.5933 15ZM31.3333 22.5833L29.9683 23.9483C29.1283 23.1083 27.9617 22.5833 26.6667 22.5833C24.0883 22.5833 22 24.6717 22 27.25C22 29.8283 24.0883 31.9167 26.6667 31.9167C28.6267 31.9167 30.3067 30.715 30.995 29H29C28.4633 29.7117 27.6233 30.1667 26.6667 30.1667C25.0567 30.1667 23.75 28.86 23.75 27.25C23.75 25.64 25.0567 24.3333 26.6667 24.3333C27.4717 24.3333 28.2067 24.66 28.7317 25.185L26.6667 27.25H31.3333V22.5833Z" fill="white"/>
</svg>
