<svg width="50" height="50" viewBox="0 0 50 50" fill="none" xmlns="http://www.w3.org/2000/svg">
<g clip-path="url(#clip0_32_10)">
<path fill-rule="evenodd" clip-rule="evenodd" d="M2 25C2 12.2975 12.2975 2 25 2C37.7025 2 48 12.2975 48 25C48 37.7025 37.7025 48 25 48C12.2975 48 2 37.7025 2 25ZM25 0C11.1929 0 0 11.1929 0 25C0 38.8071 11.1929 50 25 50C38.8071 50 50 38.8071 50 25C50 11.1929 38.8071 0 25 0ZM11 32C10.4477 32 10 32.4477 10 33C10 33.5523 10.4477 34 11 34H39C39.5523 34 40 33.5523 40 33V17C40 16.4477 39.5523 16 39 16H13.4142L18.0711 11.3431C18.4616 10.9526 18.4616 10.3195 18.0711 9.92893C17.6805 9.53841 17.0474 9.53841 16.6569 9.92893L10.2929 16.2929C9.90237 16.6834 9.90237 17.3166 10.2929 17.7071L16.6569 24.0711C17.0474 24.4616 17.6805 24.4616 18.0711 24.0711C18.4616 23.6805 18.4616 23.0474 18.0711 22.6569L13.4142 18H38V32H11Z" fill="white"/>
</g>
<defs>
<clipPath id="clip0_32_10">
<rect width="50" height="50" fill="white"/>
</clipPath>
</defs>
</svg>
