<svg width="40" height="40" viewBox="0 0 40 40" fill="none" xmlns="http://www.w3.org/2000/svg">
<path fill-rule="evenodd" clip-rule="evenodd" d="M20 38C29.9411 38 38 29.9411 38 20C38 10.0589 29.9411 2 20 2C10.0589 2 2 10.0589 2 20C2 29.9411 10.0589 38 20 38ZM16.9496 22.9698C17.7593 23.7575 18.8576 24.2 20.0027 24.2C21.1479 24.2 22.2461 23.7575 23.0559 22.9698C23.8656 22.1822 24.3205 21.1139 24.3205 20C24.3205 18.8861 23.8656 17.8178 23.0559 17.0302C22.2461 16.2425 21.1479 15.8 20.0027 15.8C18.8576 15.8 17.7593 16.2425 16.9496 17.0302C16.1398 17.8178 15.6849 18.8861 15.6849 20C15.6849 21.1139 16.1398 22.1822 16.9496 22.9698ZM29.2552 20C29.2552 20.396 29.2182 20.78 29.1688 21.164L31.7719 23.156C32.0063 23.336 32.068 23.66 31.9199 23.924L29.4526 28.076C29.3046 28.34 28.9715 28.436 28.7001 28.34L25.6282 27.128C24.9867 27.608 24.3205 28.004 23.5433 28.316L23.0869 31.496C23.0375 31.784 22.7785 32 22.4701 32H17.5354C17.227 32 16.9679 31.784 16.9186 31.496L16.4621 28.316C15.6849 28.016 15.0187 27.608 14.3772 27.128L11.3054 28.34C11.034 28.436 10.7009 28.34 10.5529 28.076L8.08553 23.924C7.92516 23.66 7.99918 23.336 8.23357 23.156L10.8366 21.164C10.7873 20.78 10.7502 20.396 10.7502 20C10.7502 19.604 10.7873 19.208 10.8366 18.8L8.23357 16.844C7.99918 16.664 7.92516 16.34 8.08553 16.076L10.5529 11.924C10.7009 11.66 11.034 11.552 11.3054 11.66L14.3772 12.86C15.0187 12.392 15.6849 11.984 16.4621 11.684L16.9186 8.504C16.9679 8.216 17.227 8 17.5354 8H22.4701C22.7785 8 23.0375 8.216 23.0869 8.504L23.5433 11.684C24.3205 11.984 24.9867 12.392 25.6282 12.86L28.7001 11.66C28.9715 11.552 29.3046 11.66 29.4526 11.924L31.9199 16.076C32.068 16.34 32.0063 16.664 31.7719 16.844L29.1688 18.8C29.2182 19.208 29.2552 19.604 29.2552 20Z" fill="white"/>
</svg>
