<svg width="60" height="60" viewBox="0 0 60 60" fill="none" xmlns="http://www.w3.org/2000/svg">
<rect width="60" height="60" rx="14" fill="transparent" fill-opacity="0.8"/>
<rect x="1" y="1" width="58" height="58" rx="13" stroke="transparent" stroke-opacity="0.5" stroke-width="2"/>
<g clip-path="url(#clip0_4061_763)">
<path d="M30.1177 18.9445C24.6768 18.9445 20.2832 23.338 20.2832 28.7789C20.2832 34.2198 24.6768 38.6134 30.1177 38.6134C33.4384 38.6134 36.5547 36.9275 38.3684 34.1432C38.4706 34.1432 38.5472 34.1687 38.6494 34.1687C40.0543 34.2198 41.2293 33.0959 41.2804 31.6909C41.3059 30.7458 40.7951 29.8518 39.9521 29.392C39.9521 29.1876 39.9777 29.0088 39.9777 28.8045C39.9521 23.338 35.5585 18.9445 30.1177 18.9445ZM30.1177 37.0807C25.5453 37.0807 21.8158 33.3513 21.8158 28.7789C21.8158 24.2065 25.5453 20.4771 30.1177 20.4771C34.69 20.4771 38.4195 24.2065 38.4195 28.7789V29.0344C37.0912 29.1365 36.0694 30.2605 36.0439 31.5888C36.0439 32.3295 36.3759 33.0448 36.9379 33.5301C35.3797 35.7524 32.8253 37.0807 30.1177 37.0807Z" fill="white"/>
<path d="M25.4688 28.83C25.4688 30.1104 25.9801 31.3384 26.8903 32.2438C27.8005 33.1492 29.0349 33.6578 30.3221 33.6578C31.6093 33.6578 32.8438 33.1492 33.754 32.2438C34.6641 31.3384 35.1755 30.1104 35.1755 28.83C35.1755 27.5496 34.6641 26.3216 33.754 25.4162C32.8438 24.5108 31.6093 24.0022 30.3221 24.0022C29.0349 24.0022 27.8005 24.5108 26.8903 25.4162C25.9801 26.3216 25.4688 27.5496 25.4688 28.83Z" fill="white"/>
<path d="M13.1309 12.5074C13.514 12.6351 13.8716 12.8139 14.2037 13.0693C14.4592 13.3759 14.6635 13.759 14.7912 14.1422C14.8679 14.3465 15.0978 14.4232 15.3021 14.3465C15.4043 14.2954 15.4554 14.2444 15.5065 14.1422C15.6342 13.7846 15.813 13.4525 16.0429 13.146C16.4005 12.865 16.7837 12.6606 17.2179 12.5329C17.3967 12.4818 17.4989 12.2775 17.4478 12.0731C17.4223 11.9709 17.3201 11.8943 17.2179 11.8432C16.8092 11.7155 16.426 11.5367 16.0684 11.2812C15.813 10.9747 15.6342 10.6426 15.5065 10.2595C15.4298 10.0551 15.1999 9.9785 14.9956 10.0551C14.919 10.1062 14.8423 10.1829 14.7912 10.2595C14.6635 10.6426 14.4592 10.9747 14.2037 11.2812C13.8972 11.5367 13.514 11.7155 13.1309 11.8432C12.9521 11.8943 12.8499 12.0987 12.901 12.303C12.9521 12.4052 13.0287 12.4818 13.1309 12.5074ZM52.673 36.391C52.0855 36.1867 51.4725 35.9057 51.1915 35.6503C50.8594 35.2671 50.6295 34.8073 50.4762 34.322C50.3741 34.0665 50.0931 33.9643 49.8376 34.0665C49.7099 34.1176 49.6333 34.2198 49.5822 34.322C49.4289 34.8073 49.1735 35.2671 48.8414 35.6758C48.586 35.9312 47.9985 36.1867 47.4365 36.391C47.2066 36.4677 47.0789 36.7486 47.1555 36.9785C47.2066 37.1063 47.3088 37.2084 47.4365 37.2595C47.9474 37.4128 48.4072 37.6427 48.8159 37.9748C49.148 38.3835 49.4034 38.8433 49.5822 39.3541C49.6844 39.6096 49.9654 39.7118 50.2208 39.6096C50.3485 39.5585 50.4252 39.4563 50.4762 39.3541C50.6295 38.8943 50.8594 38.4601 51.1659 38.0769C51.4469 37.796 52.0855 37.515 52.673 37.3106C52.9285 37.2595 53.0817 37.0041 53.0051 36.7486C52.9796 36.5698 52.8518 36.4421 52.673 36.391ZM44.0136 18.3569C44.3712 18.4591 44.6777 18.6124 44.9843 18.8423C45.2142 19.1233 45.393 19.4298 45.5207 19.7874C45.5973 19.9662 45.8017 20.0428 45.9805 19.9662C46.0571 19.9407 46.1082 19.864 46.1593 19.7874C46.2615 19.4809 46.4147 19.1744 46.6446 18.9189C46.9767 18.689 47.3088 18.5102 47.6919 18.3825C47.8452 18.3314 47.9474 18.1526 47.8963 17.9993C47.8708 17.8972 47.7941 17.8205 47.6919 17.795C47.3343 17.6928 46.9767 17.514 46.6702 17.2841C46.4403 17.0287 46.2615 16.6966 46.1593 16.3901C46.0827 16.2112 45.8783 16.1346 45.6995 16.2112C45.6229 16.2368 45.5718 16.3134 45.5207 16.3901C45.4185 16.7221 45.2397 17.0287 45.0098 17.3096C44.7033 17.5395 44.3712 17.6928 44.0136 17.795C43.8603 17.8461 43.7582 18.0249 43.8348 18.2037C43.8348 18.2548 43.9114 18.3314 44.0136 18.3569ZM16.7581 39.4819C16.4005 39.3797 16.0429 39.2009 15.7364 38.971C15.5065 38.7155 15.3277 38.3835 15.2255 38.0514C15.1488 37.8726 14.9445 37.796 14.7657 37.8726C14.6891 37.8981 14.6124 37.9748 14.5869 38.0514C14.4847 38.3835 14.3059 38.69 14.076 38.971C13.7695 39.2009 13.4374 39.3541 13.0798 39.4563C12.9265 39.5074 12.8243 39.6862 12.8754 39.8395C12.901 39.9416 12.9776 40.0183 13.0798 40.0438C13.4374 40.146 13.7439 40.2993 14.0505 40.5292C14.2804 40.8101 14.4592 41.1167 14.5869 41.4743C14.6635 41.6531 14.8679 41.7297 15.0211 41.6531C15.0978 41.6276 15.1744 41.5509 15.1999 41.4743C15.3021 41.1422 15.4554 40.8612 15.6853 40.6058C15.9918 40.3759 16.3494 40.1971 16.7326 40.0694C16.8858 40.0183 16.988 39.8395 16.9369 39.6862C16.9114 39.584 16.8348 39.5074 16.7581 39.4819ZM12.8754 27.374C12.8754 27.655 13.1053 27.8849 13.3863 27.8849C13.6673 27.8849 13.8972 27.655 13.8972 27.374C13.8972 27.093 13.6673 26.8631 13.3863 26.8631C13.1053 26.8631 12.8754 27.093 12.8754 27.374ZM10.321 42.9558C9.75906 42.9558 9.29926 43.4156 9.29926 43.9776C9.29926 44.5396 9.75906 44.9994 10.321 44.9994C10.883 44.9994 11.3428 44.5396 11.3428 43.9776C11.3428 43.4156 10.883 42.9558 10.321 42.9558ZM50.6806 23.2869C51.1148 23.2869 51.4469 22.9549 51.4469 22.5206C51.4469 22.0864 51.1148 21.7543 50.6806 21.7543C50.2463 21.7543 49.9143 22.0864 49.9143 22.5206C49.9143 22.9549 50.2463 23.2869 50.6806 23.2869ZM42.1233 43.2113C41.7657 43.2113 41.4847 43.4923 41.4847 43.8499C41.4847 44.2075 41.7657 44.4885 42.1233 44.4885C42.481 44.4885 42.7619 44.2075 42.7619 43.8499C42.7619 43.4923 42.481 43.2113 42.1233 43.2113ZM39.9266 12.2008C40.2842 12.303 40.5907 12.4563 40.8972 12.6862C41.1271 12.9672 41.3059 13.2737 41.4337 13.6313C41.5103 13.8101 41.7146 13.8867 41.8934 13.8101C41.9701 13.7846 42.0212 13.7079 42.0723 13.6313C42.1744 13.2992 42.3277 13.0182 42.5576 12.7628C42.8641 12.5329 43.2217 12.3541 43.6049 12.2264C43.7582 12.1753 43.8603 11.9965 43.8092 11.8432C43.7837 11.741 43.7071 11.6644 43.6049 11.6389C43.2473 11.5367 42.8897 11.3579 42.5831 11.128C42.3532 10.847 42.1744 10.5405 42.0723 10.2084C41.9956 10.0296 41.7913 9.95296 41.6125 10.0296C41.5358 10.0551 41.4847 10.1318 41.4337 10.2084C41.3315 10.5405 41.1527 10.847 40.9228 11.128C40.6162 11.3579 40.2842 11.5111 39.9266 11.6133C39.7733 11.6644 39.6711 11.8432 39.7222 11.9965C39.7477 12.0987 39.8244 12.1753 39.9266 12.2008ZM23.3485 44.4885C22.9142 44.4885 22.5822 44.8206 22.5822 45.2548C22.5822 45.6891 22.9142 46.0211 23.3485 46.0211C23.7827 46.0211 24.1148 45.6891 24.1148 45.2548C24.1148 44.8206 23.7827 44.4885 23.3485 44.4885ZM14.4081 22.2652C14.1271 22.2652 13.8972 22.4951 13.8972 22.7761C13.8972 23.057 14.1271 23.2869 14.4081 23.2869C14.6891 23.2869 14.919 23.057 14.919 22.7761C14.919 22.4951 14.6891 22.2652 14.4081 22.2652ZM32.5443 11.7921C32.9786 11.7921 33.3107 11.4601 33.3107 11.0258C33.3107 10.5916 32.9786 10.2595 32.5443 10.2595C32.1101 10.2595 31.778 10.5916 31.778 11.0258C31.778 11.4601 32.1101 11.7921 32.5443 11.7921ZM47.8963 46.8896C47.5387 46.7875 47.1811 46.6086 46.8745 46.3787C46.6446 46.1233 46.4658 45.7912 46.3637 45.4592C46.287 45.2804 46.0827 45.2037 45.9039 45.2804C45.8272 45.3059 45.7761 45.3825 45.7251 45.4592C45.6229 45.7912 45.4441 46.0978 45.2142 46.3787C44.9076 46.6086 44.5756 46.7619 44.218 46.8641C44.0647 46.9152 43.9625 47.094 44.0136 47.2472C44.0391 47.3494 44.1158 47.4261 44.218 47.4516C44.5756 47.5538 44.8821 47.707 45.1886 47.9369C45.4185 48.2179 45.5973 48.5244 45.7251 48.8821C45.8017 49.0609 46.006 49.1375 46.1848 49.0609C46.2615 49.0353 46.3126 48.9587 46.3637 48.8821C46.4658 48.5755 46.6446 48.269 46.849 48.0136C47.1811 47.7837 47.5131 47.6049 47.8963 47.4771C48.0496 47.4261 48.1517 47.2472 48.1006 47.094C48.1006 46.9918 48.024 46.9152 47.8963 46.8896ZM11.3428 31.7676C10.9341 31.6398 10.5509 31.461 10.1933 31.2056C9.93787 30.8991 9.75906 30.567 9.63134 30.1838C9.55471 29.9795 9.32481 29.9028 9.12046 29.9795C9.04382 30.0306 8.96719 30.1072 8.9161 30.1838C8.78838 30.567 8.58403 30.8991 8.32859 31.2056C8.02206 31.461 7.6389 31.6398 7.25574 31.7676C7.07693 31.8186 6.97476 32.023 7.02585 32.2274C7.05139 32.3295 7.15357 32.4062 7.25574 32.4572C7.6389 32.5594 7.99652 32.7382 8.32859 32.9937C8.58403 33.3002 8.78838 33.6834 8.9161 34.0665C8.99274 34.2709 9.22263 34.3475 9.42699 34.2709C9.52916 34.2198 9.58025 34.1687 9.63134 34.0665C9.75906 33.7089 9.93787 33.3768 10.1678 33.0703C10.5254 32.7893 10.9085 32.585 11.3428 32.4572C11.5216 32.4062 11.6238 32.2018 11.5727 31.9975C11.5216 31.8953 11.445 31.8186 11.3428 31.7676ZM26.9246 23.7978C27.3589 23.7978 27.691 23.4657 27.691 23.0315C27.691 22.5973 27.3589 22.2652 26.9246 22.2652C26.4904 22.2652 26.1583 22.5973 26.1583 23.0315C26.1583 23.4657 26.4904 23.7978 26.9246 23.7978Z" fill="white"/>
<path d="M45.8268 28.779C45.8268 24.4109 43.9621 20.2473 40.6925 17.3097C40.2582 16.9265 39.6196 16.9776 39.2364 17.3863C38.8533 17.8206 38.9044 18.4592 39.3131 18.8423C44.805 23.7723 45.2904 32.2019 40.3604 37.7194C38.4701 39.8395 35.9668 41.2955 33.2081 41.8831C32.5695 40.1971 30.6536 39.3287 28.9677 39.9673C28.0992 40.2993 27.4096 40.9635 27.0775 41.832C21.0235 40.4015 16.7322 35.0117 16.7066 28.779C16.7066 25.305 18.0604 21.9843 20.4871 19.4809C22.0964 20.2983 24.0888 19.6597 24.9062 18.0505C25.1361 17.5907 25.2639 17.1053 25.2639 16.5945V16.339C26.8476 15.7004 28.5335 15.3684 30.2449 15.3684C30.8069 15.3684 31.2667 14.9086 31.2667 14.3466C31.2667 13.7846 30.8069 13.3248 30.2449 13.3248C28.2525 13.3248 26.2856 13.708 24.4464 14.4488C23.2459 13.0949 21.1768 12.9672 19.7974 14.1422C19.1077 14.7553 18.699 15.6493 18.6735 16.5945C18.6735 17.1053 18.8012 17.5907 19.0311 18.0505C16.2468 20.9114 14.6631 24.7686 14.6631 28.779C14.6631 36.1867 19.9507 42.3939 26.9753 43.901C27.4606 45.638 29.2998 46.6598 31.0368 46.1745C32.1097 45.8679 32.9782 45.025 33.2847 43.9521C40.437 42.5217 45.8268 36.2634 45.8268 28.779Z" fill="white"/>
<path d="M32.2371 14.4487C32.135 15.0107 32.467 15.5471 33.029 15.6493C34.2551 15.9047 35.4301 16.339 36.5541 16.9009C36.7073 16.9776 36.8606 17.0287 37.0139 17.0287C37.5758 17.0287 38.0356 16.5689 38.0101 15.9813C38.0101 15.6237 37.8057 15.2661 37.4737 15.0873C36.1965 14.4232 34.8426 13.9378 33.4377 13.6568C32.9013 13.5547 32.3648 13.9123 32.2371 14.4487Z" fill="white"/>
</g>
<defs>
<clipPath id="clip0_4061_763">
<rect width="46" height="39.0905" fill="white" transform="translate(7 10)"/>
</clipPath>
</defs>
</svg>
