<svg width="40" height="40" viewBox="0 0 40 40" fill="none" xmlns="http://www.w3.org/2000/svg">
<rect x="4.5" y="4.5" width="31" height="31" stroke="white"/>
<line x1="4.9353" y1="31.9825" x2="35.6276" y2="23.7585" stroke="white" stroke-width="0.5"/>
<line x1="5.0894" y1="4.97541" x2="13.3756" y2="35.9" stroke="white" stroke-width="0.5"/>
<line x1="27.2415" y1="4.9353" x2="35.2774" y2="34.9257" stroke="white" stroke-width="0.5"/>
<path fill-rule="evenodd" clip-rule="evenodd" d="M24.5658 24.9441C26.5352 25.945 28.9431 25.16 29.9441 23.1906C30.945 21.2212 30.16 18.8133 28.1906 17.8124C26.2212 16.8114 23.8133 17.5965 22.8124 19.5658C21.8114 21.5352 22.5965 23.9431 24.5658 24.9441ZM29.4983 22.9641C28.6225 24.6873 26.5156 25.3742 24.7924 24.4983C23.0692 23.6225 22.3823 21.5156 23.2581 19.7924C24.1339 18.0692 26.2409 17.3823 27.9641 18.2581L26.1678 20.058L23.9009 18.9058L25.0576 21.1704L23.2613 22.9703L25.7725 22.57L26.9292 24.8346L27.3245 22.3226L29.8357 21.9223L27.5688 20.7701L27.9641 18.2581C29.6873 19.1339 30.3742 21.2409 29.4983 22.9641Z" fill="white"/>
<path fill-rule="evenodd" clip-rule="evenodd" d="M16.0583 33.7644C17.0328 34.2845 18.2444 33.9162 18.7644 32.9417C19.2845 31.9672 18.9162 30.7556 17.9417 30.2356C16.9672 29.7155 15.7556 30.0838 15.2356 31.0583C14.7155 32.0328 15.0838 33.2444 16.0583 33.7644ZM18.3233 32.7063C17.9333 33.4371 17.0246 33.7134 16.2937 33.3233C15.5629 32.9333 15.2866 32.0246 15.6767 31.2937C16.0667 30.5629 16.9754 30.2866 17.7063 30.6767L16.9211 31.4325L15.9597 30.9194L16.4359 31.8996L15.6508 32.6555L16.7302 32.5055L17.2065 33.4857L17.3974 32.4128L18.4768 32.2628L17.5154 31.7496L17.7063 30.6767C18.4371 31.0667 18.7134 31.9754 18.3233 32.7063Z" fill="white"/>
<path fill-rule="evenodd" clip-rule="evenodd" d="M16.073 12.3031C17.2757 11.7798 17.8265 10.3805 17.3031 9.17776C16.7798 7.97502 15.3805 7.42427 14.1778 7.94763C12.975 8.47098 12.4243 9.87026 12.9476 11.073C13.471 12.2758 14.8703 12.8265 16.073 12.3031ZM16.8447 9.37726C17.2578 10.3268 16.823 11.4315 15.8735 11.8447C14.924 12.2578 13.8193 11.823 13.4061 10.8735C12.9929 9.92397 13.4277 8.81928 14.3773 8.4061L14.5082 9.76206L13.2591 10.3056L14.5891 10.6001L14.7201 11.9561L15.4111 10.7821L16.7412 11.0766L15.8383 10.0565L16.5293 8.88259L15.2802 9.42613L14.3773 8.4061C15.3268 7.99292 16.4315 8.42773 16.8447 9.37726Z" fill="white"/>
<path fill-rule="evenodd" clip-rule="evenodd" d="M30.7353 10.4632C31.5271 10.8858 32.5115 10.5865 32.934 9.7947C33.3566 9.00294 33.0573 8.01854 32.2655 7.59598C31.4738 7.17342 30.4894 7.47271 30.0668 8.26447C29.6443 9.05623 29.9436 10.0406 30.7353 10.4632ZM32.4929 9.55928C32.2004 10.1074 31.5189 10.3146 30.9707 10.0221C30.4226 9.72954 30.2154 9.04803 30.5079 8.49989C30.8005 7.95175 31.482 7.74455 32.0301 8.03709L31.4413 8.60396L30.7202 8.21912L31.0774 8.95431L30.4885 9.52118L31.2981 9.40868L31.6553 10.1439L31.7985 9.33916L32.608 9.22666L31.8869 8.84181L32.0301 8.03709C32.5783 8.32963 32.7855 9.01114 32.4929 9.55928Z" fill="white"/>
<path fill-rule="evenodd" clip-rule="evenodd" d="M8.4336 16.6323C9.22536 17.0549 10.2098 16.7556 10.6323 15.9638C11.0549 15.1721 10.7556 14.1877 9.96384 13.7651C9.17208 13.3426 8.18768 13.6418 7.76512 14.4336C7.34255 15.2254 7.64185 16.2098 8.4336 16.6323ZM10.1912 15.7284C9.89867 16.2766 9.21716 16.4838 8.66902 16.1912C8.12088 15.8987 7.91368 15.2172 8.20622 14.669C8.49877 14.1209 9.18028 13.9137 9.72842 14.2062L9.13958 14.7731L8.41849 14.3883L8.77565 15.1234L8.18681 15.6903L8.99639 15.5778L9.35356 16.313L9.49674 15.5083L10.3063 15.3958L9.58523 15.0109L9.72842 14.2062C10.2766 14.4988 10.4838 15.1803 10.1912 15.7284Z" fill="white"/>
<path fill-rule="evenodd" clip-rule="evenodd" d="M8.4336 29.6323C9.22536 30.0549 10.2098 29.7556 10.6323 28.9638C11.0549 28.1721 10.7556 27.1877 9.96384 26.7651C9.17208 26.3426 8.18768 26.6418 7.76512 27.4336C7.34255 28.2254 7.64185 29.2098 8.4336 29.6323ZM10.1912 28.7284C9.89867 29.2766 9.21716 29.4838 8.66902 29.1912C8.12088 28.8987 7.91368 28.2172 8.20622 27.669C8.49877 27.1209 9.18028 26.9137 9.72842 27.2062L9.13958 27.7731L8.41849 27.3883L8.77565 28.1234L8.18681 28.6903L8.99639 28.5778L9.35356 29.313L9.49674 28.5083L10.3063 28.3958L9.58523 28.0109L9.72842 27.2062C10.2766 27.4988 10.4838 28.1803 10.1912 28.7284Z" fill="white"/>
<path fill-rule="evenodd" clip-rule="evenodd" d="M28.7353 29.4632C29.5271 29.8858 30.5115 29.5865 30.934 28.7947C31.3566 28.003 31.0573 27.0185 30.2655 26.596C29.4738 26.1734 28.4894 26.4727 28.0668 27.2645C27.6443 28.0562 27.9436 29.0406 28.7353 29.4632ZM30.4929 28.5593C30.2004 29.1074 29.5189 29.3146 28.9707 29.0221C28.4226 28.7295 28.2154 28.048 28.5079 27.4999C28.8005 26.9518 29.482 26.7446 30.0301 27.0371L29.4413 27.604L28.7202 27.2191L29.0774 27.9543L28.4885 28.5212L29.2981 28.4087L29.6553 29.1439L29.7985 28.3392L30.608 28.2267L29.8869 27.8418L30.0301 27.0371C30.5783 27.3296 30.7855 28.0111 30.4929 28.5593Z" fill="white"/>
</svg>
