<svg width="40" height="40" viewBox="0 0 40 40" fill="none" xmlns="http://www.w3.org/2000/svg">
<path d="M5.27174 9.37323C5.06386 9.2186 4.84188 9.16494 4.6058 9.21225C4.36971 9.25955 4.13981 9.40611 3.91608 9.65193C3.76406 9.81896 3.65934 9.9815 3.60191 10.1396C3.54292 10.2962 3.52642 10.4425 3.55243 10.5785C3.57987 10.713 3.64559 10.8275 3.74959 10.9222C3.83339 11.0042 3.92552 11.0549 4.02598 11.0744C4.12787 11.0922 4.23472 11.0872 4.34653 11.0593C4.45676 11.03 4.57152 10.9846 4.6908 10.9232C4.80851 10.8603 4.92723 10.7869 5.04695 10.7028L5.54678 10.3625C5.78623 10.1944 6.02566 10.058 6.26508 9.95319C6.50449 9.84842 6.74051 9.78377 6.97314 9.75925C7.20577 9.73474 7.43236 9.75801 7.65289 9.82909C7.87486 9.89858 8.08741 10.0243 8.29054 10.2063C8.58535 10.4775 8.77336 10.7869 8.85457 11.1345C8.93563 11.4791 8.9084 11.8462 8.77288 12.2357C8.63721 12.6221 8.39011 13.0123 8.03157 13.4063C7.6759 13.7971 7.30624 14.0829 6.9226 14.2639C6.54039 14.4432 6.15803 14.5072 5.77553 14.4558C5.39288 14.4014 5.02385 14.2197 4.66844 13.9106L5.56981 12.9203C5.74215 13.057 5.91997 13.1338 6.10328 13.1508C6.28644 13.1648 6.4687 13.1276 6.65006 13.0391C6.83127 12.9477 7.00219 12.8137 7.16282 12.6372C7.32058 12.4639 7.43233 12.2904 7.49807 12.1169C7.56525 11.9418 7.5862 11.7779 7.56092 11.6253C7.53564 11.4726 7.46469 11.3432 7.34809 11.2371C7.23936 11.1381 7.11857 11.0872 6.98571 11.0844C6.85428 11.0801 6.70663 11.1157 6.54277 11.1913C6.38034 11.2653 6.19754 11.3711 5.99437 11.5089L5.38228 11.9155C4.91156 12.2333 4.46306 12.4143 4.03678 12.4584C3.61051 12.5026 3.21924 12.3612 2.86298 12.034C2.56846 11.7689 2.38339 11.4578 2.30778 11.1009C2.2336 10.7424 2.26126 10.3685 2.39077 9.97933C2.52027 9.59014 2.74565 9.21905 3.0669 8.86609C3.39389 8.50682 3.74074 8.24917 4.10746 8.09316C4.47561 7.93557 4.83732 7.88161 5.19259 7.93126C5.54787 7.98091 5.87184 8.1346 6.1645 8.39232L5.27174 9.37323Z" fill="white"/>
<path d="M11.645 9.73851L8.19889 4.17371L10.3944 2.81409C10.8164 2.55271 11.2259 2.41064 11.6229 2.38789C12.0187 2.36332 12.3825 2.445 12.7144 2.63293C13.047 2.81792 13.3277 3.09518 13.5566 3.46472C13.7854 3.83426 13.9076 4.20968 13.9232 4.59099C13.9388 4.97229 13.8442 5.33541 13.6393 5.68035C13.4361 6.02416 13.1208 6.32844 12.6933 6.59319L11.294 7.45977L10.7101 6.51691L11.9192 5.76811C12.1457 5.62789 12.3081 5.4734 12.4066 5.30464C12.5058 5.13295 12.5484 4.95492 12.5345 4.77057C12.5213 4.58328 12.458 4.39816 12.3447 4.2152C12.2303 4.03043 12.0933 3.89221 11.9338 3.80053C11.775 3.70592 11.5977 3.66657 11.4021 3.68248C11.2053 3.69657 10.9928 3.77429 10.7645 3.91564L9.97111 4.40698L12.8216 9.0099L11.645 9.73851Z" fill="white"/>
<path d="M17.746 6.70028L17.7492 0.154822L22.1597 0.156963L22.1591 1.29794L19.1325 1.29647L19.1317 2.85613L21.9314 2.85749L21.9309 3.99847L19.1312 3.99711L19.1304 5.55997L22.1698 5.56144L22.1693 6.70242L17.746 6.70028Z" fill="white"/>
<path d="M25.0194 7.44543L28.6076 1.97116L32.2963 4.38901L31.6708 5.34327L29.1395 3.68406L28.2845 4.98848L30.6261 6.52329L30.0006 7.47754L27.659 5.94273L26.8023 7.24982L29.3443 8.91603L28.7188 9.87029L25.0194 7.44543Z" fill="white"/>
<path d="M31.2708 12.9979L30.1452 10.9689L35.8688 7.79355L37.0038 9.83931C37.3231 10.415 37.4835 10.9742 37.4848 11.5168C37.488 12.0584 37.3383 12.5594 37.0357 13.0196C36.7341 13.4818 36.2861 13.8777 35.6918 14.2074C35.0955 14.5382 34.5206 14.7097 33.967 14.722C33.4145 14.7362 32.9073 14.5972 32.4456 14.3051C31.9849 14.0149 31.5933 13.5792 31.2708 12.9979ZM31.8534 11.6038L32.2797 12.3723C32.4782 12.7301 32.7085 12.9958 32.9706 13.1696C33.2356 13.3442 33.5363 13.4186 33.8728 13.3927C34.2123 13.3677 34.5953 13.2368 35.022 13.0001C35.4449 12.7655 35.7559 12.5113 35.9549 12.2376C36.155 11.9658 36.2507 11.6727 36.242 11.3584C36.2333 11.044 36.1297 10.708 35.9312 10.3502L35.5033 9.5789L31.8534 11.6038Z" fill="white"/>
<path fill-rule="evenodd" clip-rule="evenodd" d="M36 20C36 28.8366 28.8366 36 20 36C11.1634 36 4 28.8366 4 20C4 18.2539 4.27971 16.5731 4.79676 15L2.70353 15C2.24546 16.5874 2 18.2651 2 20C2 29.9411 10.0589 38 20 38C29.9411 38 38 29.9411 38 20C38 18.2651 37.7545 16.5874 37.2965 15H35.2032C35.7203 16.5731 36 18.2539 36 20Z" fill="white"/>
</svg>
