<svg width="40" height="40" viewBox="0 0 40 40" fill="none" xmlns="http://www.w3.org/2000/svg">
<g clip-path="url(#clip0_38_777)">
<path fill-rule="evenodd" clip-rule="evenodd" d="M37.3867 15.3412C39.9596 24.9436 34.2611 34.8137 24.6587 37.3867C15.0564 39.9596 5.18629 34.2611 2.61333 24.6587C0.0403802 15.0563 5.73886 5.18627 15.3413 2.61332C24.9436 0.0403679 34.8137 5.73885 37.3867 15.3412ZM20.0601 16.3604L30.3576 13.0934C30.4223 13.0695 30.4884 13.0485 30.5558 13.0305C32.1562 12.6016 33.9171 13.9838 34.4889 16.1177C35.0607 18.2516 34.2268 20.329 32.6264 20.7579C32.5589 20.7759 32.4912 20.7908 32.4232 20.8025L22.8495 22.907L22.8987 23.0908C22.9359 23.2294 22.8489 23.3708 22.7085 23.4002L14.3759 25.144C14.246 25.1712 14.1175 25.0922 14.0832 24.964L13.8999 24.2802L12.9196 24.4854C12.9603 24.4745 12.9998 24.4609 13.0382 24.4447C12.2671 24.5418 11.4044 23.66 11.0652 22.3941C10.726 21.1282 11.0322 19.9332 11.7485 19.6316C11.7072 19.6368 11.6662 19.6448 11.6255 19.6557L19.1562 17.1827C18.7862 17.9275 18.7151 19.0684 19.0341 20.2588C19.5344 22.1259 20.8049 23.4078 21.8718 23.1219C21.9123 23.111 21.952 23.0981 21.9908 23.0831C20.9509 23.2448 19.7568 21.9903 19.2756 20.1941C18.7943 18.3979 19.2011 16.7145 20.1825 16.3346C20.1415 16.341 20.1006 16.3496 20.0601 16.3604ZM10.8626 20.4263L7.43129 21.5321C7.26006 21.4279 7.08671 21.3895 6.92532 21.4328C6.39186 21.5757 6.19115 22.5565 6.47704 23.6235C6.76292 24.6904 7.42713 25.4394 7.9606 25.2965C8.12199 25.2532 8.25292 25.1333 8.34914 24.9575L11.8736 24.1995C11.4232 23.8459 11.0283 23.2222 10.8237 22.4588C10.6191 21.6953 10.6493 20.9577 10.8626 20.4263ZM32.497 20.2749C33.8306 19.9175 34.5062 18.1142 34.0059 16.2471C33.5056 14.38 32.0189 13.1561 30.6852 13.5134C29.3516 13.8708 28.676 15.6741 29.1763 17.5412C29.6766 19.4083 31.1633 20.6323 32.497 20.2749Z" fill="white"/>
</g>
<defs>
<clipPath id="clip0_38_777">
<rect width="40" height="40" fill="white"/>
</clipPath>
</defs>
</svg>
